<?xml version="1.0" encoding="utf-8"?>
<!-- Generator: Adobe Illustrator 20.1.0, SVG Export Plug-In . SVG Version: 6.00 Build 0)  -->
<svg version="1.1" id="Layer_1" xmlns="http://www.w3.org/2000/svg" xmlns:xlink="http://www.w3.org/1999/xlink" x="0px" y="0px"
	 viewBox="0 0 390 390" style="enable-background:new 0 0 390 390;" xml:space="preserve">
<style type="text/css">
	.st0{fill:#010101;}
</style>
<g>
	<g>
		<path class="st0" d="M9.3,205.5c4,0.2,7.8,0.3,10.9,0.3c2.4-0.2,4.8-0.4,7.5-0.4c2.6-0.1,5.4-0.1,8.5,0c1.6,0.1,3,0.1,4.7,0.3
			c0.8,0.1,1.7,0.2,2.6,0.2c0.4,0.1,0.9,0.1,1.3,0.2l0.7,0.1c0.2,0.1,0.6-0.1,0.5,0.3c0-0.3-0.4,0-0.7,0c-0.3,0.1-0.4,0.1-0.7,0.2
			c-0.4,0.1-0.7,0.2-0.9,0.4c-0.4,0.3-0.7,0.5-0.8,0.8c-0.3,0.6-0.4,1.2-1.1,1.9c-0.3-0.5-1-0.8-1.9-1c-0.4-0.1-1-0.2-1.5-0.2
			c-0.3,0-0.5,0-0.8,0c-0.4,0-0.8-0.1-1.2-0.1c-0.6,0-1.2-0.1-1.8-0.1v0.1c-0.7,0.2-1.1,0-1.6-0.2c-2.5-0.2-5.1-0.4-7.8-1
			c4,0.9,3,1.5,1.9,1.6c0,0,3.5,0.2,7.1,0.4c0.9,0.1,1.8,0.1,2.6,0.1h0.6h0.4c0.2,0,0.4,0,0.6,0c0.8,0,1.3,0,1.3,0
			c-0.4,0.6-0.2,1,0.3,1.1c0.3,0.1,0.5,0.3,0.9,0.4c0.2,0.3,0,0.9-0.1,1.3c1.2-1.6,1.8-0.5,2.2,1.9l0.1,0.4l0.1,0.7
			c0.1,0.5,0.2,1,0.2,1.5c0.1,1.1,0.3,2,0.4,3.1c0.3,1.3,0.5,2.6,0.9,3.6c0.1,0,0.3,0,0.4,0c-0.1,1.1,0.8,1.4,0.6,2.6
			c-0.4,0.4-0.7,0.4-1.1,0.5c1.2,2.1,2.2,4.3,2.2,7.9c0.4,1.5,1,3.2,1.2,4.7c0.6,2.6,0.8,4.6,0.1,3.5l-0.5-1.7
			c0.7,2.8,1.6,6.3,3.1,10c0.3,0.7,0.5,1.4,0.8,2.1l0.7,1.6l0.7,1.6l0.2,0.4c0,0.1-0.2,0.2-0.3,0.3l-0.6,0.5c-0.8,0.7-1.6,1.3-2.3,2
			c-0.3,0.3-1,0.9-1.5,1.3c-0.5,0.5-1.1,1-1.6,1.4c-1.9,1.8-3.1,3.2-3.1,3.9c-0.3-0.2-0.4-3.1-0.1-3.9c0,0-3,4.5-5.9,9
			c-0.7,1.1-1.5,2.2-2.2,3.3c0,0,0,0.1-0.1,0.1l-5.1,3.7c-0.9-0.1-1.9-0.2-2.7-0.3c-2.3-0.3-3.7-1.1,1.7-5.6
			c-2.1,1.3-4.7,2.9-7.7,5.1c-0.1,0.5-0.4,0.9-0.8,1.1c1.2,1.7,2.8,3.6,4.6,5.8c-0.6-1.1-0.8-2.6-0.4-3.2c0.4-0.6,1.3-0.5,2.3,0.7
			c1.1,3.4,1.9,5.1,2.7,6.7c0.2,0.4,0.4,0.7,0.6,1.1c0-0.4,0-0.9,0-1.2c1.8-0.9,1.9,2.3,0.4,2c0.2,0.3,0.4,0.6,0.4,0.9
			c0.4,1,1.1,2.4,1.9,4.3c-1.2-2.5,3.1-1.8,5.5,1.8c-0.8-0.3-2.3,2-3.4,1l8.7,7c-2-1.9-2.4,1.1-1.7,3.5c-0.2-1.2,5.4,7.6,7.2,9.8
			l-2-4.1c3.3,5,5.9,6.9,8.5,8.6c0.6,0.4,1.3,0.9,2.1,1.5c0.7,0.6,1.5,1.1,2.2,1.9c1.5,1.3,2.9,2.9,4.7,5.5c0.1-0.1,0.2-0.1,0.3-0.2
			c-0.1,0.1-0.2,0.3-0.3,0.4c-0.8,0.1-2.4,1.1-0.8,4.8c0.5-0.1,1.3-0.4,2.6-1.1c-0.2-0.1-0.3-0.2-0.4-0.2c0.3-0.9,1.1-1.1,1.3-1.9
			c0.4,0,0.7,0.2,0.9,0.4c1.7-2.2,4.1-5.6,5.8-8.5c-0.4-0.4-1-0.4-2.7-0.3c0-2.1,1.9-2.5,3.9-2.6c-0.1,0.4-0.1,0.9-0.1,1.2l10.9-7.8
			c-0.4,0.6-0.9,1.3-1.4,1.9c-1.6,2.2-3.3,4.5-4.8,6.6c-0.7,0.9-1.3,1.8-2,2.6c0,0.3,0,0.4,0,0.7c-0.3,0-0.4,0-0.6,0
			c-0.3,0.4-0.6,0.7-0.9,1.1c-0.5,0.6-1.1,1.1-1.6,1.7c0.8-0.4,1.3-0.7,1.9-1c0.4-0.2,0.6-0.3,0.9-0.4c0.4-0.2,0.7-0.2,1-0.3
			c0.4-0.2,1.1-0.5,2.8-1.8c-0.3-0.6-0.3-1.5-0.2-2.5c0.4,0.5,1,1.1,1.4,1.7l0,0c0.9-0.3,0.8,0.1,0.4,0.7c0.1,0.3,0.2,0.5,0.2,0.8
			l8.8-5.9c-0.4-0.3-0.1-1,0.7-1.8c0.5-0.5,0.4-0.6,0.6-0.9s0.4-0.4,0.5-0.7c-0.2-0.3-0.3-0.6-0.4-0.8c-0.3,0.3-0.5,0.5-0.8,0.8
			l-0.3,0.3l-0.6,0.5c-0.4,0.4-0.8,0.7-1.1,1.1c-0.8,0.7-1.5,1.3-2,1.9c-1.2,1.1-2,1.8-2,1.8c-0.7-0.5,0.3-2.6,2.5-5.4
			c-0.7-0.5-1.1-1.3-1.3-2.4c1.2,1.2,1.8,0,3.3,0c0.2-0.2,0.3-0.4,0.4-0.5c0.6-0.7,1.3-1.4,2.1-2.2c0.4-0.4,0.9-0.8,1.2-1.1l0.4-0.3
			l0.2-0.2c0.1,0,0.1,0.1,0.2,0.1l0.6,0.4c0.9,0.6,1.8,1.3,2.7,2.1c0.8,1.1-0.1,1.4-0.9,1.9c-0.8,0.4-1.5,0.8-1.5,1.1
			c0.2-0.1,0.5,0.1,1.1,0.3c0.3,0.1,0.5,0.3,0.8,0.4c0.1,0.1,0.4,0.3,0.7,0.4l0.8,0.6c0.5,0.4,1,0.7,1.5,1.1c0.2-0.6,0.5-1,0.6-1.6
			c1.1,0.2,1.5,1.1,1.3,2.6c1.3-0.4,0.2-3.3,2.6-2.6c0.4,2-0.7,2.4-0.6,3.9c-0.4,0.1-0.8,0-1-0.1c0.2,0.1,0.3,0.3,0.3,0.4
			c0,0-1.1-0.4-2.3-1c-1.1-0.6-2.2-1.1-2.2-1.1c2.2,2.4,4.9,3.3,7.5,4.5c1.3,0.6,2.6,1.2,3.9,2.1c1.3,0.9,2.6,1.9,4.1,3.3
			c2.3,1.4,5.9,5.9,6.8,5.2c-0.9-1.2-1.3-2.7-1.2-4.1c-0.4-0.2-0.8-0.4-1-0.4c0.2-1,0.6-1.2,1.1-1.1c0.2-0.6,0.4-1.1,0.6-1.7
			c2.6,1.4,5.2,2.7,7.8,4.1l-0.6,0.4l1.6,0.7l0.2-0.6c0.3,0.1,0.5,0.2,0.7,0.4c1.1-0.8,2.9,0.8,3.4,1.2c-0.1,0.1-0.1,0.2-0.2,0.3
			c1.4,0.6,2.8,1.2,4.2,1.9c-0.4,0.5-2.2,0.5-3.6,0.7c-2,0.1-3.4,0.5-2.9,1.5c0.4-0.4,2.2-0.3,3.1-0.1c0.6,0.5,0,0.7-0.3,0.9
			c-0.1,0.1-0.1,0.1-0.1,0.2s0,0.1-0.1,0.3c0,0.1-0.1,0.2-0.1,0.3c1,0.8,1.6,2.1,1.1,3.3c0,0.3,0,0.6-0.1,0.9
			c-0.1,0.4-0.2,1.1-0.2,1.5c-0.2,1-0.4,1.7-0.5,2.6c0,0.2-0.1,0.4-0.1,0.4c0.3,0.1,0.4,0.3,0.4,0.5c-0.2,0.5-0.4,0.4-0.6,0.3
			c-0.4,1.3-0.7,2.9-1.1,5.6c0.8-1,1.5,0.7,2,3.3c0.2,0.9,0.3,1.9,0.4,2.8l-1.2,7.3c-0.1,0.2-0.2,0.3-0.3,0.4
			c-0.3,1.5-0.5,2.8-0.8,4.1c0.1-0.2,0.2-0.3,0.3-0.4c0.8,0.3,1.3,0.8,1.3,1.9c-0.4,0.1-0.7,0.1-1,0.1c1.9,0.4,3.6,0.8,5.3,1.1
			c0.2-0.4,0.4-0.9,0.9-1.2c1.1-0.1,1.4,0.8,2.6,0.6c0.1,0.5,0.2,1,0.2,1.4c0.6,0.2,1.3,0.3,1.9,0.4c3.6,0.8,7.3,1.6,11.9,2.3
			c1,0.6,6.1,2,3.7,2.5c1.6-0.1,3.2-0.4,6.5,0.1c3.3,1.4,1.1,1.1-1.1,0.8c-0.1,0.2-0.2,0.4-0.3,0.5c1.9-0.1,5.1,0.1,8.2,0.4
			c-0.4-0.4-0.8-1-1.2-1.4c-1.8-0.3-3.8-0.4-5.6-0.4c-0.1,0-0.2,0.1-0.3,0.1c-0.1-0.1-0.1-0.1-0.1-0.2c-1.7-0.1-3.3-0.1-4.6-0.2
			c0.1-0.8,1.2-1.4,3.2-1.9l1.1,0.2c0.4-1.5,1.9-2.8-0.8-2.6c-0.4-1,2.6-1.6,0.6-1.9c1-1.5,3.9,0.4,5.2,0.6c-0.3,1.9-1,3.3-2.1,4.3
			l2.2,0.4c-0.1-0.1-0.1-0.1-0.2-0.2c0.4-4.1,3.8-2.6,4.6-5.2c1.4,1.7,1.8,4.2,1.9,6.4l1.9,0.4c0-0.4,0.1-1,0.1-1.6
			c1.7,1.2,3.8,1.9,4.6-0.6c1.1,1.2,0.8,2.2,0.2,3l2.5,0.4c0-0.1,0-0.1,0-0.2c0.7-0.1,1,0.2,1.2,0.4l2.3,0.4
			c0.3-1.2,0.6-2.5,0.4-2.7c1.4-1.9,4.8,1.1,4.8,3.6l0.3,0.1l0.7-4.1c0.4-1.5,0.9-3.7,1.3-6.2c-0.2,0.2-0.4,0.2-0.7-0.4
			c0.5-0.9,0.8-0.9,0.9-0.6c0.4-2.5,1-5.2,1.4-7.9c0.7-4.1,1.5-8.5,2.3-12.6c0.3-1.2,0.4-2.4,0.7-3.4c-1.6,0.3-2.8,2.6-4.7,1.2
			c-0.2-1.5,0.2-2.5,1.3-2.6c1.4-0.4,0.9,1.2,1.9,1.3c0.9-1.6-1.1-2.9-0.6-5.2c0.6,1.5,2.4,1.9,3.3,3.2c1.6-0.1,3.1-0.2,4.4-0.2
			c1.2-0.4,3.5-1.1,4.3-1.5c0.8-0.1,1.6-0.3,2.4-0.4c0.4-0.5,0.6-1,0.6-1.9c1.1,0,2.2,0,3.3,0c0.2,0.4,0.4,0.7,0.5,1.1
			c1.3-0.3,2.6-0.4,3.9-0.7c-0.8-1.9,0.2-2.5,1.4-3.6c1.1,0.4,1.5,2,1.1,3.1c1.7-0.4,3.3-0.8,4.9-1.1c0.2-0.8,0.3-1.6,0.5-2.6
			c0.6,0,1.3,0,1.9,0c-0.1,0.7,0.1,1.3,0.2,1.9h0.1l4.5-1l-1.9,0.3l-0.3,0.1c4.5-1.3,8.9-3,13.3-4.8c-1.6-2.4,2.5-2.8,1.5-6.1
			c4,0.5,6.1,3,9.1,4.6c-1,3.5-7.1-2.4-10,1.3c1-0.4,1.9-0.7,2.9-1.1l0.6,0.9c0-0.1-0.1-0.3-0.1-0.4c1,0.5,2,1,1.9,2.6
			c-0.2-0.1-0.4-0.2-0.5-0.3l0.3,0.4c-0.2,0.1-0.4,0.3-0.4,0.6l2,2.3c0.4-0.2,0.7-0.3,1.2-0.3c0.1,0.6-0.1,1-0.4,1.2l0.9,1.1
			l0.1,0.2c0-0.2,0-0.3,0-0.4c1.7,0.2,1.1,1.4,0.5,1.7c0.3,0.2,0.5,0.4,0.9,0.7l2.3,3.3c0.6-0.7,1.4-1.5-0.4-1.8
			c0.1-0.8,1.1-0.5,1.9-0.6c-0.4-1.1-0.4-2.7-1.3-3.3c0.9-1.8,3.5-1.3,5.2-0.6c-0.4,3.7-1.5,3.4-1.9,7.1c-0.7,0.3-2.1-0.3-2.8,0
			l2.6,3.7c0.1,0.1,0.1,0.3,0.2,0.4c1,0.3,1.8,0.6,1.3-1.5c1.9,0.5,1.1,1.9-0.1,3.1l1.6,2.2c0.4-0.4,1-0.7,1.8-0.7
			c-0.4,2.8,1.1,3.6,2.6,4.6c-0.3,0.4-0.7,0.6-1.1,0.8c0.2,0.2,0.3,0.4,0.4,0.6c0,0,0,0,0-0.1c0.6,0.4,1.1,1,1.1,1.6l1.6,2.3
			c1.9-1.2,1.3-2.4,1.9-3.9c1.7,1.5,0.9,2.3,0.3,3.8l1.7-1.1c-0.1-1.1,0.3-2,0.7-2.6c1-0.1,1.5,0.3,1.8,0.9l1.6-1.1
			c-0.3-0.2-0.5-0.4-0.8-0.4c-0.4-1.3,1.2-1.6,1.3-0.6c0.7-1.2,1.1-1,2-0.8l7.7-5.5c0-0.1,0.1-0.2,0.1-0.3c0.1,0,0.2,0,0.4,0l2-1.5
			c-0.9,0.2-2.2-0.1-2.4,0.8c-1.5,0.2-0.7-1.9-1.9-1.9c1.8-1.4,3.6-1.2,5.2,0c0,0.3,0,0.4,0,0.5l16.9-12.1c-0.8-0.8-0.4-2.2,0-3.4
			c1.7-0.4,1.4,1.1,1.2,2.5l3.3-2.3c-0.1-0.2-0.1-0.4,0-0.9c0.1-0.3,1.4-1.1,1.9-0.6v0.1l7.6-5.4l-8-11.2c0.2,0.4,0.3,1.1,0.4,1.6
			c-1.9,0.1-2.7,1.1-4.6,1.3c0.4-1.6,1.8-2.2,1.9-3.9c0.8-0.2,1.3-0.1,1.7,0.2l-0.9-2.9c-2.5,0.4-2.6,3.4-6.4,3.9
			c0.2-3.9,2.6-1.9,1.3-6.5c2.3,0.3,3.5,1.6,5.1,2.6l-9.3-13.1c-0.4-0.2-0.9-0.4-1-0.5c0.2-0.2,0.3-0.4,0.3-0.4l-3.4-4.8
			c1.8-1.9,3.3-4,5-6c-0.6-1.6-0.5-2.6,0.1-4.3c-2,0.1-1.9-2-4.6-1.3c0.4-1.9,3.1-1.2,4.6-1.9c0.8,0.9,0.8,2.4,0,3.3
			c1.1-0.1,1.8,0.6,2.1,1.5c4.7-6.1,8.8-12.5,12.5-19.3c-0.1-0.1-0.2-0.2-0.3-0.4c0.3-0.6,0.5-0.6,0.7-0.4c2.2-4.1,4.1-8.3,6-12.6
			c-0.5,0.1-1.1-0.2-1.5-0.5c0.2-1.2,1.2-1.4,2.1-1c0-0.1,0.1-0.2,0.1-0.2l11.5,1.9c0-0.1-0.1-0.1-0.1-0.1c0.5-1.1,1-0.4,1,0.3
			l16.4,2.7c-0.5-0.8-1.8-1-1.1-3c0.8,0.2,2.5,2.6,3.3,0.6c0.9,0.5,0.7,1.8,0.1,2.7l4.5,0.8c0-0.3-0.1-0.5-0.1-0.9
			c0.8-0.9,3.1-0.9,3.9,0c0.2,0.7,0.1,1.1-0.1,1.5h0.3l0.6-3.5h-0.1c0-0.4,0-0.9,0-1.3c0.2,0,0.2,0,0.4,0l1.5-9
			c1.5-2.3,3.1-4.8,4.1-4.2c-0.5-3.4,0.9-7.5,2.4-12.2c-0.4,0-0.9,0-1.2,0c0-0.4,0-0.9,0-1.3c0.4,0,0.9,0,1.3,0c0,0.4,0,0.8,0,1.2
			c1.6-4.8,3.1-10.2,2.4-16c0.9-2.3,0.4,2.2,1.3,1c-0.4-1.5-0.4-3-0.2-5c0.1-0.5,0.1-1,0.2-1.6c0.1-0.7,0.3-1.5,0.4-2.4
			c0.4-1.7,0.7-3.5,1.2-5.7l0.1,0.9c0.4-2.6,0.8-5.1,1.1-7.1c-4.9-0.8-9.3-1.6-13.6-2.5c-1.6-0.4-3.1-0.6-4.7-1
			c-1.4-0.4-2.8-0.6-4.3-1c-2.9-0.6-5.9-1.3-9.3-2.1c-0.9-0.2-1.7-0.4-2.6-0.5c-0.4-0.1-0.9-0.2-1.3-0.3l-0.6-0.2
			c-0.5-0.2-1.1-0.3-1.7-0.4c-0.5,1.9-1.7,2.9,0.9,4.2c-0.8,2.7-2.2-0.5-3.9-0.6c0.3-0.7,0.4-1.3,0.4-1.9c-0.1-0.1-0.2-0.1-0.3-0.2
			c-0.2,0,0-0.4,0-0.5c0.1-0.5,0.1-1.1,0.1-1.6c-0.2-0.7-0.4-1.5-0.9-2.3c0.4,0,0.7,0.1,1,0.2c0-0.6-0.1-1.4-0.2-2.8
			c-0.1-1.9-0.3-3.7-0.7-5.6c-0.6-3.7-1.2-7.3-1.6-10.3c-0.3-1.7-0.4-3.2-0.5-4.3c-0.2,0-0.4,0-0.6,0c0-0.4,0-0.9,0-1.3
			c0.3,0,0.4,0,0.7,0c0-0.3,0.1-0.6,0.2-0.8c-1.8-6.5-0.9,2.3-2.6-4.2l0.3-1.9c0,0-0.4-0.4-0.7-0.7c-0.4-0.4-0.8-0.6-0.8-0.6
			c-0.4-1.1-0.6-1.9-0.7-2.8c-0.1-0.4-0.2-0.9-0.2-1.1c0-0.2,0-0.4,0.1-0.5c0.2-0.6,0.5-0.9,0.9-1c0.1,0.5,0.4,0.7,1.1,2.2
			c-0.1-0.4-0.2-0.7-0.3-1.1c-0.1-0.4-0.1-0.4-0.1-0.5c-0.1-0.3-0.1-0.5-0.2-0.9c-0.1-0.3-0.2-0.5-0.4-0.8c-0.1-0.3-0.4-0.6-0.1-0.8
			c0.7-0.7,1.2-1.2,1.8-1.6c-0.1,0-0.1,0.1-0.3,0.1c-0.2,0.1-0.5,0.2-0.8,0.4c-0.6,0.3-1.2,0.6-1.2,0.6c0.4-0.6,7.1-5.5,12.1-9
			c6.8-4.8,13.7-9.8,20.4-14.6c-2.6-3.5-5.1-7-7.6-10.3c-0.7,0.6-1.6,0.9-1.9,1.9c-1.4-0.5,0.3-2.5,0.6-3.6
			c-0.5-0.7-1.1-1.4-1.7-2.1c-0.5-0.6-1-1.2-1.4-1.8c-1-1.1-1.9-2.3-2.9-3.4l0.3,1.4c-8.5-10-5.6-8.9-14.3-20.4l0.4,0.4
			c-2.2-2-4.7-4.9-6.9-8.2c0.7,0.6,0.8,0.5,0.7,0.2c-0.1-0.4-0.4-1.1-1-2.3c-1.1-2-2.1-4.2,0.3-1.5c-5.2-6.4-7.1-8.8-8.4-10.1
			c-1.3,1.2-1.9,1.9-2.8,2.9c-1,1.1-2.6,2.7-5.3,5.6c0.1,0-2.6,0.7-2.7,0.7c-0.8,0.9-1.1,1.3-1.5,1.9c-0.4,0.4-0.7,1-1.2,1.4
			c-1,1-2.4,2.2-5.2,4.4c4.3-4.1-4.6,1.4,0.1-3.3c-6.6,3.3-11.8,7.8-12.7,8.9c-0.4,0.4-1,1-1.4,1.3c-0.4-0.2-0.9-0.6-1.3-1
			c-0.8-0.8-1.4-1.8-1.7-3c-3.7-1.3-0.8,1.6,0.5,2.9c0.9,0.8,1.8,1.7,2.4,2c0.6-0.4,0.9-0.6,0.4-0.1c0.4,0,0.5,0.2,0.3,0.7
			c-0.1,0.3-0.4,0.5-0.6,0.9c-0.1,0.1-0.2,0.3-0.3,0.2l-0.3-0.1c-0.2-0.1-0.4-0.2-0.5-0.3c-0.8-0.4-1.7-1-2.6-1.7
			c-0.3-0.2-0.4-0.4-0.7-0.5c0,0.7-0.5,1.3-1.4,0.9c0-0.6,0-1.3,0-1.9h0.1c-0.3-0.3-0.5-0.4-0.8-0.7c-0.9-0.8-1.6-1.7-2.4-2.7
			c-0.8-1-1.6-2-2.6-3.3c-1-1.2-2.2-2.6-3.8-4.1c-0.8-0.8-1.7-1.6-2.7-2.4c-1.1-0.7-2.3-1.5-3.6-2.3c1.1,0.6,1.2,0.5,2.3,1.1
			c-1.9-1.5-4-2.5-6.2-3.5c-2.2-1.1-4.4-2.3-6.8-4c-0.9,0.1-1.9-0.2-2.5-0.4c-0.4-0.1-0.9-0.3-1.2-0.4c-0.8-0.4-1.4-0.5-2.7,0.1
			c0,0,1.8,0.7,3.4,1.3c2.6,1.1,5.1,2.1,5.1,2.1c-1.5-0.5-3.1-1-4.7-1.4c-0.9-0.3-1.2-0.3-1.9-0.4c-0.6-0.1-1.3-0.3-2-0.4
			s-1.5-0.4-2.3-0.7c-0.2-0.1-0.5-0.1-0.5-0.3v-0.5c0-0.4,0.1-0.8,0.1-1.2c0.1-0.8,0.3-1.8,0.4-2.6c0.2-1,0.4-1.9,0.8-3.2
			c0.2,0.4,0.2,1.6,0.4,2.3c0.1,0.8,0.2,1.6,0.3,2.3c0.5-1.1,0.5-1.9,0.6-2.9c0.2-1.4,0.3-2.9,0.9-4.4c0.5,0.4,0.6,1.3,0.5,2.7
			c0,0.4-0.1,0.7-0.1,1.1c0,0.4-0.1,0.7-0.1,1.1c-0.1,0.4-0.1,1-0.2,1.5c-0.1,0.5-0.2,1.1-0.3,1.6l-0.1,0.4c0,0.2-0.1,0.3,0.2,0.3
			l0.8,0.4c1.1,0.4,2.2,0.7,3.1,0.6c-0.4-0.7-1.9-0.9-3-1.2c-0.4,0-0.4-0.3-0.4-0.4s0.1-0.4,0.2-0.5c0.2-0.3,0.4-0.3,1.1-0.3
			c-0.7-0.1-1-0.7-1-1.4c0-0.4,0-0.7,0.1-1.1c0.2-0.8,0.4-1.6,0.5-2.4c0.7-3.3,1.7-7.1,1.2-11.3l1.1,0.7c0-1.3-0.2-4.1,0.3-6.4
			l1,4.5c-0.5-4,2.7-13.9,4.4-22.6c-2-0.4-4.1-0.7-6.3-1c2.6,0.4,4.7,0.8,6.2,1.1c-1.2,6.3-1.7,6.4-2,6.2c-0.4-0.3-0.9-0.8-1.9,3
			c0.3-2.7,0.5-5,0.8-6.9c-7.3-1.1-9-2.3-12.6-3.8c-2.2-0.8-3.1-1.4-5.2-2c-1.9-0.6-4.4-1.1-7.8-1.6c2.9,0.5,7.7,2.1,4.1,2.1
			c-3.4-0.9-7.9-2.1-9.9-3.1c-12.1-1.8,1.6,1.6-3.6,1.5c-3.9-2.2-6-0.4-11.4-0.8l0.2-1.3c-6.8-1.6-7.8-1.1-8.6-0.5
			c-0.4,0.3-0.8,0.5-1.9,0.5c-1.3,0-3.6-0.4-7.9-1.4c0,0,1.8-0.2,3.5-0.4c2-0.1,4-0.3,4-0.3l-10.1-0.5c-0.1,0,1.4-1.2,1.5-1.2
			c-3.1-0.2-5.5-0.4-7.5-0.6c-0.4,3.2-0.8,5.6-1.2,8.3c-0.3,1.3-0.5,2.7-0.9,4.3c-0.2,0.8-0.4,1.6-0.5,2.5c-0.1,0.4-0.2,0.9-0.3,1.4
			c-0.1,0.3-0.2,0.6-0.2,0.9c1.1-1.4,2.2,1.3,1.2,7.4c-1.5,4.1-0.8-2.6-2.1,6.1c-0.4-2.1-1.1-4.4,0.7-7.9c-0.4-0.4-0.5-2-0.8-2.6
			c-1.6,4.3-2.1,11.2-2.6,14.3c0.3-1.2,0.5-2.6,0.9-3.3c0,0,0,0.8-0.1,2c0,0.6,0,1.3-0.1,2c0.1,0.4,0.1,0.7,0.2,1.1
			c0.1,0.7,0.2,1.6,0.3,2.3c0,0.4,0.1,0.7,0.1,0.9c-0.1,0.1-0.2,0.1-0.2,0.1c-0.7-0.2-0.9-0.4-0.9-0.6c-0.1-0.3,0.4-0.3,0.1-0.9
			c0.1,0.4-0.2,0.4-0.4,0.4c-0.2,0.1-0.4,0.2-0.5,0.3c-0.4,0.2-1,0.4-1.9,0.5c0.2-1.1,0.2-2.2,1-2.7c0,0-0.4,0.4-1.2,0.7
			c0.1,0.1-1.1,0.3-1.8,0.4c-0.7,0.1-1.4,0.3-2,0.4c-1.1,0.2-1.9,0.4-1.9,0.4c-0.9-0.4-6.6-0.2-5-0.8c-7.2,0.4-16.6,5.4-25.5,7.6
			c-0.2,0.2-0.5,0.4-1,0.7c-0.1,0.1-0.3,0.2-0.4,0.2c-0.2,0.1-0.3,0.2-0.3,0.2c-0.1,0.1-0.3,0.2-0.4,0.3c-0.7,0.2-1.3,0.3-1.9,0.4
			c-0.4-0.4-0.6-1.2-0.9-1.7l-0.2-0.4c-0.1-0.1,0-0.1-0.2-0.3l-0.4-0.6c-0.6-0.9-1.2-1.8-1.9-2.6c-1.3-1.8-2.8-3.5-4.6-5.3l-1.7-5.6
			c-0.6-0.8-1.1-1.2-1.3-1.4c-0.3-0.3-0.6-0.4-0.6-0.3c0.1,0.5,0.2,1.1,0.3,1.9c0.1,0.7,0.1,1.2-0.4,1.1c-0.3-0.1-0.6-0.4-1.2-1.1
			c-0.2-0.2-0.8-1-1.4-1.7c-0.5-0.7-1.2-1.6-2-2.6c-4.2-5.5-4.8-6.9-4.8-7.8c0.1-0.9,1-0.8-0.6-3.4c-0.2-0.3-0.4-0.4-0.7-0.7
			c-3.3,3-7.5,6.8-11.8,10.3c-1,0.7-1.9,1.5-2.8,2.3c-0.7,0.5-1.5,1.1-2.3,1.7c-1.6,1.1-3.3,2.1-5.1,2.9c2-1.9,4-2.9,6-4.6l-5.8,2.8
			c1.3-1.5,2.6-2.7,3.7-3.8c1.1-1.1,2.1-1.9,2.7-2.6c1.1-1,1.7-1.5,1.3-1.4c-0.2,0-0.6,0.2-1.3,0.5c-0.9,0.5-1.2,0.5-2,0.9
			c1.4,3.5-20,14.7-18.6,18.2l-3.9,1.9c1-0.7,1.1-1,2-1.6c-3.9,1.7-4.7,3.1-5.7,4.8c-0.5,0.9-1.1,1.8-2,2.9
			c-0.4,0.5-1.1,1.1-1.9,1.8c-0.2,0.2-0.4,0.3-0.6,0.4c-0.4,0.3-0.6,0.4-1,0.7c-0.7,0.4-1.4,1-2.3,1.6c-4.7,3-8.6,5.2-5.9,2.6
			l-4.8,4l4.2,5.2c1.7,2.4,1.1,2.5-0.2,0.7l8.8,11.9h-0.2c1.5,1.1,4.6,3.9,6,5.3c1.4,2.9-1.2-1.1-1.1-0.2c0,0,1.1,1.2,2.4,2.6
			c0.6,0.6,1.1,1.2,1.6,1.7c0.3,0.3,0.5,0.4,0.5,0.4c0.1,0.9-0.7,0.7-1.4,0.3c-1.1-1-2.9-3.2-4.1-5.1c0.2,1.9,0.5,3,1.1,4
			c0.3,0.4,0.5,0.9,0.9,1.2s0.8,0.9,1,0.9c0.4,0.2,1,0.5,1.5,1.1c0.1,0.2,0.3,0.4,0.4,0.5c0,0.2,0.4,0.4,0.1,0.5
			c-0.4,0.4-1,0.8-1.6,1.1c0-0.1,1-1.7,0.3-1.6c-0.3,0.2-0.4,0.3-0.6,0.4c-0.3,0.1-0.5,0.1-0.8,0.2c-0.4,0.1-0.6,0.2-0.9,0.3
			L73,98.1c0,0-0.1,0.1-0.3,0.3l-0.4,0.4c-0.3,0.3-0.6,0.6-0.9,0.9c-0.8,0.8-1.6,1.6-2.5,2.4c0.1,0,0.2,0,0.3,0c0,0.1,0,0.1,0,0.1
			c1.3-1.1,3.1-2.4,4.7-3.3c1.1,0,2.5-0.3,1.8,1.3c-1.5,1.4-3.7,3.5-5.5,7.5c-1.1-0.7-3.2,2.8-6.1,7.1l-1.2-1.2
			c-2.6,5-1.5,5.2-2.5,8.4c-3.3,5.3-5,5.8-6.6,6.7c-2.2,4.5-1,3.2,0.2,2.1c0.6-0.5,1.1-1.1,1.3-0.7c0.1,0.2,0,0.5-0.2,1.2
			c-0.1,0.4-0.3,0.7-0.4,1.2c-0.1,0.3-0.3,0.7-0.4,1.1c-0.3,0.4-0.5,0.8-0.7,1.1c0.5,0.1,0.7,2.3-0.4,0.7c-0.1,0.2-0.1,0.4-0.2,0.4
			l-0.4-0.1c-0.4,0-0.6,0-1,0c-0.4,0-0.7,0-1.1,0c-0.3,0-0.3,0-0.7,0c-0.4,0-1-0.1-1.5-0.1c-2-0.1-4.1-0.3-6.5-0.4
			c-5.4-1.5,1.1-0.9-0.8-1.7l-5.1,0.5c-1.1-0.3-0.7-0.6-0.5-0.8c-2.1-0.1-2.2,0.4-2.7,0.7c-0.3,0.2-0.4,0.4-1.3,0.4
			c-0.9,0-2.3,0-4.4-0.3c-0.9,0.7-4.2-0.3-9.3-1.8c-0.8,2.6-1.8,5.8-2.6,9.4l-0.5,2.7c-0.2,0.9-0.4,2-0.4,2.5
			c-0.2,1.2-0.2,2.5-0.1,3.6c-0.8,1.9-0.9-1.1-1.7-0.6c-0.4,11.2-0.5,9.5-0.2,18.8l-2.4,7.5c2.2-5.4,2.6,2,2.7,8.5
			c0.2-0.3,0.3-0.5,0.4-0.8l-0.4,2.2c0-0.4,0-0.9-0.1-1.3c-0.2,0.4-0.4,0.7-0.5,1.1c0.2,0.5,0.3,1.1,0.4,1.6l-0.8,4.9
			c-0.5,0.1-1-1.1-1.2-3c0.5-1.2,1.1-2.4,1.7-3.5c-0.6-2.6-1.4-5.2-2.5-4.8c0.1,0.7,0.1,1.9-0.1,3.3c-0.2-0.7-0.4-1.1-0.6-0.9
			c-0.3,0.4,0,1.4,0.1,3.2c0,0.1-2.3,1.9-2.3,2.1l0.6,0.9L4,204.3L9.3,205.5z M35.4,284c0-0.6,0-1.3,0-1.9
			C37.2,281.1,37.2,285,35.4,284z M40.6,285.3c1.9-1,1.9,2.9,0,1.9C40.6,286.6,40.6,285.9,40.6,285.3z M39.9,291.1
			c0.1-0.3,1.4-1.1,1.9-0.6C43.1,291.6,39,293.6,39.9,291.1z M42.5,279.5C43.5,277.3,44.1,282,42.5,279.5L42.5,279.5z M43.1,303.5
			C41.3,300.3,44.3,305.6,43.1,303.5L43.1,303.5z M44.4,295c-3.2,0.6-1.2-3.4,0-1.3C44.4,294.2,44.4,294.6,44.4,295z M43.1,289.2
			C44.1,287.1,44.7,291.7,43.1,289.2L43.1,289.2z M44.4,285.9c-0.4,0-0.9,0-1.3,0c0-0.4,0-0.9,0-1.3c0.4,0,0.9,0,1.3,0
			C44.4,285,44.4,285.5,44.4,285.9z M50.3,276.8c-1-0.4-1.7-1-2.6-1.3C48,273.2,50.4,275,50.3,276.8z M47.7,296.9
			c0.4-2.1-0.4-3-0.6-4.6c0.4,1.5,2.7,1.1,3.9,1.9C50.8,296.2,49.8,297.1,47.7,296.9z M84,325.6C85,323.4,85.7,328.1,84,325.6
			L84,325.6z M325,328.1C323,330.5,322.8,326.2,325,328.1L325,328.1z M319.8,332c-0.6,0-1.3,0-1.9,0c0-0.6,0-1.3,0-1.9
			c0.6,0,1.3,0,1.9,0C319.8,330.8,319.8,331.4,319.8,332z M315.9,327.5c0.9,0,1.8,0,2.6,0c0.4,1.8-1.3,1.3-1.3,2.6
			C316.1,329.9,315.7,329,315.9,327.5z M317.2,331.4c0.4,3.3-2.3,0-1.9,2.6c-0.8-0.1-0.5-1.1-0.6-1.9
			C315.7,332.1,316,331.2,317.2,331.4z M368.5,253.5c-0.5-0.5-0.4-1.8-1.3-1.9c0.8-2.2,3.9-2.4,3.9,0.6
			C369.7,252.2,370.3,253.9,368.5,253.5z M382.1,200.3c0.1-0.3,1.4-1.1,1.9-0.6C385.3,200.7,381.2,202.6,382.1,200.3z M381.5,223.6
			c-0.3,1.8-2,0-1.3-1.3C380.8,222.5,380.6,223.6,381.5,223.6z M380.8,200.9c0,0.6,0,1.3,0,1.9c-0.6,0-1.3,0-1.9,0
			c-0.2-1.1,0.6-1.1,0.6-1.9C380,200.9,380.4,200.9,380.8,200.9z M378.9,197.6c0,0.4,0,0.9,0,1.3
			C375.7,199.6,377.7,195.5,378.9,197.6z M375.6,231.4c0.4,0,0.9,0,1.3,0c0,0.6,0,1.3,0,1.9c-0.6,0-1.3,0-1.9,0
			C374.8,232.3,375.5,232.3,375.6,231.4z M373,214.5c1.1,0.4-0.1,3.1,1.3,3.3c-0.4,0.8-4.1-0.6-5.2-1.3
			C368.9,214.3,371.9,215.4,373,214.5z M367.2,221.7c1.4-0.1,2,0.5,1.9,1.9c-0.6,0-1.3,0-1.9,0C367.2,222.9,367.2,222.3,367.2,221.7
			z M366.6,224.2c1.9-1,1.9,2.9,0,1.9C366.6,225.6,366.6,224.9,366.6,224.2z M356.2,247c0-0.6,0-1.3,0-1.9
			C358,244.1,358,247.9,356.2,247z M360,250.2C362.4,252.2,358.1,252.4,360,250.2L360,250.2z M362.6,226.2c-3.2,0.6-1.2-3.4,0-1.3
			C362.6,225.3,362.6,225.7,362.6,226.2z M361.4,193.7c0-0.6,0-1.3,0-1.9C363.2,190.8,363.2,194.7,361.4,193.7z M359.4,189.9
			c0.3-0.8,1.8-0.5,1.9,0C361.9,191.3,359,191.4,359.4,189.9z M358.1,199.6c1.9-1,1.9,2.9,0,1.9
			C358.1,200.9,358.1,200.3,358.1,199.6z M358.1,210c0.1-0.3,1.4-1.1,1.9-0.6C361.3,210.4,357.1,212.4,358.1,210z M356.2,200.9
			c0.4,0,0.9,0,1.3,0c0.3,1.4-1,1.2-1.9,1.3C355.6,201.7,356.2,201.5,356.2,200.9z M356.2,230.1c1.8-0.4,1.3,1.3,2.6,1.3
			c0,2.6-0.6,4.6-3.3,4.6C356.5,234.3,354.5,232.1,356.2,230.1z M356.2,242.5c-0.5-0.1-0.6,0.3-0.6,0.6c-0.8-0.1-0.5-1.1-0.6-1.9
			C355.9,240.9,356.1,241.7,356.2,242.5z M353.5,211.3c1.3,0.4,1.4,1.1,0.6,1.9c-0.4,0-0.9,0-1.3,0
			C352.7,212.2,353.5,212.1,353.5,211.3z M351.6,237.3c-0.4,0-0.9,0-1.3,0c0-0.4,0-0.9,0-1.3c0.4,0,0.9,0,1.3,0
			C351.6,236.4,351.6,236.8,351.6,237.3z M351,190.5C351.8,188.4,352.5,193,351,190.5L351,190.5z M350.3,200.3
			c1.3,0.4,1.4,1,0.6,1.9c-0.4,0-0.9,0-1.3,0C349.5,201.1,350.3,201.1,350.3,200.3z M350.3,203.4c0,0.6,0,1.3,0,1.9
			c-0.6,0-1.3,0-1.9,0c0-0.6,0-1.3,0-1.9C349,203.4,349.6,203.4,350.3,203.4z M348.4,197.2C348.4,196.9,348.4,197,348.4,197.2
			L348.4,197.2z M348.3,197.6c0-0.1,0-0.2,0-0.2C348.4,197.4,348.3,197.5,348.3,197.6z M348.3,197.9c0,0.3-0.1,0.4-0.1,0.6
			C348.2,198.4,348.2,198.1,348.3,197.9z M347.7,222.9c-0.3,1-0.5-0.1-1.3,0C346.6,222.1,347.7,222.3,347.7,222.9z M342.5,230.1
			c-0.4,0-0.9,0-1.3,0c0-0.4,0-0.9,0-1.3c0.4,0,0.9,0,1.3,0C342.5,229.3,342.5,229.7,342.5,230.1z M344.4,243.1c-0.4,0-0.9,0-1.3,0
			c0-0.4,0-0.9,0-1.3c0.4,0,0.9,0,1.3,0C344.4,242.2,344.4,242.7,344.4,243.1z M343.8,195.1c0.2,1.7-0.3,2.8-1.9,2.6
			c-0.4-0.5-0.7-1.1-0.6-1.9C341.8,195.1,342.7,195,343.8,195.1z M341.9,215.2c1.4,0.8,1.9,2.5,2.6,3.9c-2-0.5-1.2,1.8-3.3,1.3
			c-0.1-1.6,4.2-2.4,0-2.6C340.9,216.4,341.6,216,341.9,215.2z M356.2,111.2c-0.3,1-0.5-0.1-1.3,0
			C355,110.5,356.2,110.6,356.2,111.2z M354.2,128.8c-2.4,0.3-2.7-1.6-3.3-3.3C352.5,126.1,354.4,126.4,354.2,128.8z M351,123.6
			c-0.4,0-0.9,0-1.3,0c0-0.4,0-0.9,0-1.3c0.4,0,0.9,0,1.3,0C351,122.7,351,123.1,351,123.6z M348.3,108c0.5,0.1,0.6,0.6,1.3,0.6
			c-0.1,0.5-0.6,0.6-0.6,1.3c-0.5-0.1-0.6-0.6-1.3-0.6C347.8,108.8,348.3,108.7,348.3,108z M339.9,254.8c-0.6-1.1-2.4-1.1-1.9-3.3
			C339.9,251.2,340,252.9,339.9,254.8z M340.6,232.7c-0.6,0-1.3,0-1.9,0c0-0.6,0-1.3,0-1.9C340,230.7,340.6,231.3,340.6,232.7z
			 M338.6,126.2C340.7,124.6,337,128.3,338.6,126.2L338.6,126.2z M337.9,202.8c0.1-0.3,1.4-1.1,1.9-0.6
			C341.2,203.3,337,205.3,337.9,202.8z M337.9,240.4c1,0.5,2.6,0.5,1.9,2.6C337.7,244.6,336.5,242.2,337.9,240.4z M337.9,248.9
			C340.2,250.6,334.6,250.5,337.9,248.9L337.9,248.9z M335.4,252.8C336.9,250.3,336.3,255,335.4,252.8L335.4,252.8z M334.7,195.7
			c0-0.6,0-1.3,0-1.9C336.6,192.8,336.6,196.6,334.7,195.7z M333.4,105.4c0.4,0,0.9,0,1.3,0c0,0.4,0,0.9,0,1.3c-0.4,0-0.9,0-1.3,0
			C333.4,106.3,333.4,105.9,333.4,105.4z M334.7,242.5c-0.3,1-0.5-0.1-1.3,0C333.6,241.6,334.7,241.8,334.7,242.5z M331.5,206.7
			C332.4,204.6,333.1,209.2,331.5,206.7L331.5,206.7z M330.8,115.8c1.9-1,1.9,2.9,0,1.9C330.8,117.1,330.8,116.4,330.8,115.8z
			 M330.2,176.8c2.5-0.5,2.5,3.1,0,2.6C329.1,178.1,330.2,178.6,330.2,176.8z M314.6,211.3c-0.4,0-0.9,0-1.3,0c0-0.4,0-0.9,0-1.3
			c0.4,0,0.9,0,1.3,0C314.6,210.4,314.6,210.8,314.6,211.3z M313.9,180.8c0-0.4,0-0.9,0-1.3c0.4,0,0.9,0,1.3,0c0,0.4,0,0.9,0,1.3
			C314.8,180.8,314.4,180.8,313.9,180.8z M315.9,282C318.1,280.5,314.3,284.2,315.9,282L315.9,282z M319.1,263.9c-0.4,0-0.9,0-1.3,0
			c0-0.4,0-0.9,0-1.3c0.4,0,0.9,0,1.3,0C319.1,263,319.1,263.4,319.1,263.9z M319.8,228.8c-0.4,1.1-3.1-0.1-3.3,1.3
			c-1.7-1.3-0.3-5,1.9-4.6C318.7,226.8,320.3,226.7,319.8,228.8z M316.5,211.9c-0.1-1.1,0.8-1.4,0.6-2.6c1.3-0.3,1.7,0.4,2.6,0.6
			c0,0.6,0,1.3,0,1.9C318.9,212.8,317.4,212.8,316.5,211.9z M318.4,219c0,0.4,0,0.9,0,1.3c-0.4,0-0.9,0-1.3,0c0-0.4,0-0.9,0-1.3
			C317.6,219,318,219,318.4,219z M319.1,208c0-0.4,0-0.9,0-1.3c0.5,0.1,0.6-0.3,0.6-0.6C321,205.8,320.7,209,319.1,208z M323,263.9
			c-0.6,0-1.3,0-1.9,0c0-0.6,0-1.3,0-1.9c0.6,0,1.3,0,1.9,0C323,262.6,323,263.2,323,263.9z M322.4,247.6c1,0.5,1.4,1.7,1.3,3.3
			C321.1,250.9,322,249.2,322.4,247.6z M321.7,219c0-0.6,0-1.3,0-1.9C323.6,216.1,323.6,220,321.7,219z M326.9,260.6
			c0.2-0.8,1.3-0.6,1.3,0C328,261.6,327.6,260.5,326.9,260.6z M325.6,250.8c0-0.4,0-0.9,0-1.3c0.4,0,0.9,0,1.3,0c0,0.4,0,0.9,0,1.3
			C326.5,250.8,326,250.8,325.6,250.8z M326.9,236.6c0-0.4,0-0.9,0-1.3c0.4,0,0.9,0,1.3,0c0,0.4,0,0.9,0,1.3
			C327.8,236.6,327.3,236.6,326.9,236.6z M328.8,249.6c-0.4,0-0.9,0-1.3,0c0-0.4,0-0.9,0-1.3c0.4,0,0.9,0,1.3,0
			C328.8,248.7,328.8,249.2,328.8,249.6z M328.8,228.1c-1.3-0.2-1.8-1.3-2.6-1.9c0.2-1.1,1.1-1.5,2.6-1.3
			C328.8,226,328.8,227.1,328.8,228.1z M328.8,220.4c-0.4,0-0.9,0-1.3,0c0-0.4,0-0.9,0-1.3c0.4,0,0.9,0,1.3,0
			C328.8,219.5,328.8,219.9,328.8,220.4z M327.5,215.8C328.5,213.7,329.2,218.3,327.5,215.8L327.5,215.8z M326.3,151.5
			c0.8,0.3,1.3,0.8,1.3,1.9c-0.6,0-1.3,0-1.9,0C325.9,152.9,326.3,152.4,326.3,151.5z M325.6,208.6c1.9-1,1.9,2.9,0,1.9
			C325.6,210,325.6,209.3,325.6,208.6z M325.6,229.4C326.5,227.3,327.3,232,325.6,229.4L325.6,229.4z M326.3,243.7
			c0.1,1.9,0.1,3.5-1.9,3.3c-0.9-0.8-0.9-3.1,0-3.9C324.9,243.4,325.4,243.8,326.3,243.7z M323.6,141.1c-0.5-0.1-0.6,0.3-0.6,0.6
			c-0.8-0.1-0.5-1.1-0.6-1.9C323.5,139.6,323.6,140.3,323.6,141.1z M321.7,76.2C323.9,74.6,320.1,78.4,321.7,76.2L321.7,76.2z
			 M319.8,181.4c0-0.6,0-1.3,0-1.9C321.7,178.5,321.7,182.4,319.8,181.4z M317.8,143.8c0.5-2.3,3.4,1.6,1.3,1.9c-0.4,0-0.9,0-1.3,0
			C317.6,144.6,319,144,317.8,143.8z M317.8,185.3c-1.3,0.3-1.7-0.4-2.6-0.6C315.4,182.7,318.3,183.1,317.8,185.3z M315.2,110.6
			c2.1-0.2,2.9,3.6,0,3.3C314.4,113,314.4,111.4,315.2,110.6z M315.2,167.1c0.2,1.7-0.3,2.8-1.9,2.6
			C312.6,167.9,312.5,166.9,315.2,167.1z M312.6,214.5C314.2,212,313.6,216.7,312.6,214.5L312.6,214.5z M312.6,284
			C315.4,284.2,311.9,287.8,312.6,284L312.6,284z M97.1,229.4c-0.1-1.6-0.1-3.1,0.6-3.9c1.5-0.2,2.5,0.1,3.3,0.6
			c0.1,1.6,0.1,3.1-0.6,3.9C98.5,230.7,98.5,229.2,97.1,229.4z M102.9,242.5c0.3-0.8,1.8-0.5,1.9,0
			C105.4,243.8,102.4,244,102.9,242.5z M100.9,264.5c0.3-0.8,1.8-0.5,1.9,0C103.5,265.9,100.5,266,100.9,264.5z M102.9,237.9
			C104.5,235.3,103.8,240,102.9,237.9L102.9,237.9z M104.8,279.5c0.8,0.3,1.3,0.8,1.3,1.9C103.8,282,103.9,280.4,104.8,279.5z
			 M104.8,273c0.2-0.8,1.3-0.6,1.3,0C105.9,273.9,105.5,272.9,104.8,273z M105.5,256c0-0.6,0-1.3,0-1.9
			C107.4,253.1,107.4,257,105.5,256z M106.7,234.6c-1.6-0.3-1.4,1.1-3.3,0.6c-2.1-1.1,1.3-5.2-1.3-4.6
			C102.2,228.8,107.8,231.4,106.7,234.6z M100.3,215.2c0-0.6,0-1.3,0-1.9C102.2,212.2,102.2,216.1,100.3,215.2z M102.3,216.5
			c0.8,0.3,1.3,0.8,1.3,1.9C101.3,218.9,101.3,217.4,102.3,216.5z M103.5,225.6c-1.8,1.8-2.5-0.8-3.9-1.3
			C99.7,222.2,103.8,223.3,103.5,225.6z M99.6,254.8C101.3,252.3,100.6,256.9,99.6,254.8L99.6,254.8z M97.7,297.6c0-0.6,0-1.3,0-1.9
			c1.4-0.1,2,0.5,1.9,1.9C99,297.6,98.3,297.6,97.7,297.6z M99.6,266.4c3.1-1.1,4.5,2.6,1.9,3.3C99.8,269.8,99.7,268.1,99.6,266.4z
			 M101.5,278.8c0-0.4,0-0.9,0-1.3c0.5,0.1,0.6-0.3,0.6-0.6C103.5,276.6,103.1,279.8,101.5,278.8z M101.5,317.7
			c0.5-0.8,0.9-1.8,0.6-3.3C104.7,314.1,103.2,318.4,101.5,317.7z M103.5,274.3c-0.8-0.1-0.5-1.1-0.6-1.9c1.1-0.3,1.2,0.5,1.3,1.3
			C103.7,273.5,103.6,273.8,103.5,274.3z M104.8,308c-0.9-0.8-0.9-3.1,0-3.9c0.9,0,1.8,0,2.6,0c0,1.1,0.4,1.7,1.3,1.9
			C108.2,307.4,106.8,308,104.8,308z M108.7,282.7c0.4,1.3-2.6,1.4-0.6,0.6C107.4,282,107.4,282,108.7,282.7z M111.9,269.7
			c0,0.6,0,1.3,0,1.9c-1.9-0.3-2.6-1.8-3.3-3.3C110.2,269.9,110.4,269,111.9,269.7z M109.4,265.8c0-0.4,0-0.9,0-1.3
			c1.4-0.3,1.2,1,1.3,1.9C110.1,266.4,110,265.8,109.4,265.8z M111.3,256.8c0-0.4,0-0.9,0-1.3c0.4,0,0.9,0,1.3,0c0,0.4,0,0.9,0,1.3
			C112.2,256.8,111.8,256.8,111.3,256.8z M111.3,284c0,0.4,0,0.9,0,1.3c-0.4,0-0.9,0-1.3,0c0-0.4,0-0.9,0-1.3
			C110.4,284,110.9,284,111.3,284z M111.3,299.6c0.2,2.1-0.8,3.1-2.6,3.3c-0.2-1.5-1.2-2.6,0-3.9
			C110.1,298.6,110.4,299.4,111.3,299.6z M108.7,310.6c0,0.4,0,0.9,0,1.3c-0.4,0-0.9,0-1.3,0c0-0.4,0-0.9,0-1.3
			C107.9,310.6,108.2,310.6,108.7,310.6z M108.7,318.4c-0.5-0.4-1.1-0.7-1.9-0.6c-0.1-1.1,0.8-1.4,0.6-2.6
			C109.7,314.7,109.7,317.5,108.7,318.4z M111.9,311.9c-0.4,0-0.9,0-1.3,0c-0.2-1.1,0.6-1.1,0.6-1.9c0.4,0,0.9,0,1.3,0
			C112.8,311,112,311.1,111.9,311.9z M113.3,289.8C114.2,287.7,114.9,292.4,113.3,289.8L113.3,289.8z M112.6,284.6
			c0-0.6,0-1.3,0-1.9c1.3-0.3,1.7,0.4,2.6,0.6C115,284.5,114.1,284.9,112.6,284.6z M115.8,324.9c-0.9-0.2-0.5-1.6-0.6-2.6
			C117.1,322.9,115.9,323.3,115.8,324.9z M115.2,301.5c0-0.9,0-1.8,0-2.6C118.2,298.4,118.6,302.4,115.2,301.5z M118.5,313.2
			c-1.4,0.4-0.9-1.2-1.9-1.3c0.1-0.8,1.1-0.5,1.9-0.6C118.5,311.9,118.5,312.5,118.5,313.2z M120.4,304.2c0,0.4,0,0.9,0,1.3
			c-0.4,0-0.9,0-1.3,0c0-0.4,0-0.9,0-1.3C119.5,304.2,120,304.2,120.4,304.2z M119.8,254.8C122.6,255.1,119.1,258.5,119.8,254.8
			L119.8,254.8z M120.4,319.7c0.1-2.2-0.9-4.3,1.9-5.2C122,315.8,123.2,319.2,120.4,319.7z M123,272.3c0,0.6,0,1.3,0,1.9
			c-0.6,0-1.3,0-1.9,0c0-0.6,0-1.3,0-1.9C121.7,272.3,122.3,272.3,123,272.3z M121.7,267.2C123.3,264.6,122.6,269.3,121.7,267.2
			L121.7,267.2z M123.7,302.8c0,0.6,0,1.3,0,1.9c-1.4,0.1-2-0.5-1.9-1.9C122.3,302.8,123,302.8,123.7,302.8z M123.7,271
			C125.9,269.4,122.1,273.1,123.7,271L123.7,271z M125,313.2c-0.4,0-0.9,0-1.3,0c0-0.4,0-0.9,0-1.3c0.4,0,0.9,0,1.3,0
			C125,312.4,125,312.8,125,313.2z M124.3,266.4c-0.3-2.2,1.9-1.9,2.6-3.3c2.9,0,2.3,5,0,5.2C124.8,269,125.5,266.7,124.3,266.4z
			 M128.2,293.8c0-0.6,0-1.3,0-1.9C130.1,290.9,130.1,294.6,128.2,293.8z M130.2,299c-2.1,1.6-4.8-0.5-4.6-3.3
			C128.1,295.8,130.2,296.3,130.2,299z M139.9,291.1c-0.3-1.3,0.4-1.8,0.6-2.6c1.1-0.2,1.1,0.6,1.9,0.6
			C142.7,290.9,141.6,291.3,139.9,291.1z M139.9,298.3C140.9,296.1,141.5,300.8,139.9,298.3L139.9,298.3z M144.5,307.3
			c-0.8,3.7-5,0.2-6.5,2.6c-0.3-1.6,1.1-1.4,0.6-3.3C140.8,306.5,143.3,305.2,144.5,307.3z M143.1,329.5
			C146.1,329.9,142.6,333.4,143.1,329.5L143.1,329.5z M142.5,328.8c0-0.4,0-0.9,0-1.3c0.4,0,0.9,0,1.3,0c0,0.4,0,0.9,0,1.3
			C143.3,328.8,142.9,328.8,142.5,328.8z M138.6,321c-0.7-2.4,2.5-1.1,1.9-3.3c1.5,0,1.9,1.1,3.9,0.6
			C144.4,321.1,140.9,322.7,138.6,321z M138.6,313.2c-0.3,0.8-0.8,1.3-1.9,1.3C136.4,313.2,137.6,313.2,138.6,313.2z M139.3,305.4
			c-1.7,0.2-2.1-0.9-1.9-2.6C139,302.7,139.4,303.7,139.3,305.4z M137.3,276.2c-0.4,0-0.9,0-1.3,0c0-0.4,0-0.9,0-1.3
			c0.4,0,0.9,0,1.3,0C137.3,275.3,137.3,275.8,137.3,276.2z M136,299C137,296.8,137.6,301.4,136,299L136,299z M137.9,316.5
			c-0.1,1.1,0.8,1.4,0.6,2.6c-2.3-0.5-2.5,1-4.6,0.6C134,317.2,135.7,316.7,137.9,316.5z M131.4,292.4c2.5-0.1,3.5,1.2,3.9,3.3
			c-2.3,0.8-2.5,1.6-4.6,0C130.3,293.9,131.7,294,131.4,292.4z M131.4,291.8c-0.3-2.2,1.9-1.9,2.6-3.3c0.8,0.3,1.3,0.8,1.3,1.9
			C134.2,291,132.9,291.6,131.4,291.8z M134.1,287.2c-2.1-1.2-0.4-2.9-1.9-5.2c2-0.4,1.2,1.8,3.3,1.3
			C135.7,285.4,134.4,285.9,134.1,287.2z M132.1,278.8c-0.4,0-0.9,0-1.3,0c0.1-0.5-0.3-0.6-0.6-0.6
			C129.9,276.8,133.1,277.2,132.1,278.8z M134.7,299.6c1.7,1.9-1.7,3.2,0,4.6c-1.9,1.5-5-1.5-4.6-4.6
			C131,298.6,133.8,298.6,134.7,299.6z M132.7,315.8c-0.3,1-0.5-0.1-1.3,0C131.6,315,132.7,315.2,132.7,315.8z M130.2,306.1
			c-1.3,1.3-1.2-0.3-2.6-0.6C127.6,303.6,130.6,303.8,130.2,306.1z M126.9,328.1c0-0.6,0-1.3,0-1.9
			C128.8,325.2,128.8,329.1,126.9,328.1z M126.2,317.1c0.3-2.2,4.2-1.5,3.3,1.3C127.5,319,127.5,317.4,126.2,317.1z M129.5,322.3
			c-0.9-0.2-0.5-1.6-0.6-2.6C131.2,319.1,129.9,321.8,129.5,322.3z M130.2,310.6C132.3,309,128.6,312.8,130.2,310.6L130.2,310.6z
			 M130.8,329.5c0-0.9,0-1.8,0-2.6c1.7-0.2,2.8,0.3,2.6,1.9C132.8,329.3,132,329.5,130.8,329.5z M131.4,321c0.9-1.9,3.2,0.2,3.9,0.6
			C134.4,323.6,132.1,321.4,131.4,321z M137.3,326.2c-0.7-1.8-1.2-4.5,1.9-3.9c1.1,1.8-1.1,3.1,1.3,3.9
			C140.4,327.6,138.9,325.3,137.3,326.2z M139.3,344.4c1.3,0.3,2-0.1,1.9-1.3c4.8,1.2,3.2,7.3-0.6,8.5
			C139.4,348.7,138.5,347.8,139.3,344.4z M136.6,363.3L136.6,363.3C136.8,362.1,136.7,362.7,136.6,363.3z M136.4,364.3
			c0-0.1,0-0.2,0-0.3C136.5,364.2,136.5,364.3,136.4,364.3z M139.3,352.8c0.8,0.3,1.3,0.8,1.3,1.9c-1.1,0.2-1.1-0.6-1.9-0.6
			C138.7,353.6,139.3,353.5,139.3,352.8z M141.2,363.8c-0.4,0-0.9,0-1.3,0c0-0.4,0-0.9,0-1.3c0.4,0,0.9,0,1.3,0
			C141.2,363,141.2,363.4,141.2,363.8z M141.8,367.1c0-0.6,0-1.3,0-1.9c1.4-0.1,2,0.5,1.9,1.9C143.1,367.1,142.5,367.1,141.8,367.1z
			 M143.1,363.8c-1.1-1.6-1.8-3.4-2.6-5.2c3.6-1.2,4-8.2,9.1-5.8C146,356.5,152.4,364.6,143.1,363.8z M149,322.9c-0.4,0-0.9,0-1.3,0
			c0-0.6,0-1.3,0-1.9c0.6,0,1.3,0,1.9,0C149.8,322.1,149,322.1,149,322.9z M148.3,314.5c-0.4,0-0.9,0-1.3,0c0-0.6,0-1.3,0-1.9
			c1.1-0.2,1.1,0.6,1.9,0.6C148.9,313.8,148.3,313.9,148.3,314.5z M146.4,300.9c-0.8-0.1-0.5-1.1-0.6-1.9c1.1-0.3,1.2,0.5,1.3,1.3
			C146.5,300.1,146.4,300.5,146.4,300.9z M147.6,347c1.2,1.3,1,4.8-1.9,3.9c0-1.3,0-2.6,0-3.9C146.4,347,147,347,147.6,347z
			 M148.3,367.8c-0.4,0-0.9,0-1.3,0c0.1-0.5-0.3-0.6-0.6-0.6C146.1,365.9,149.3,366.1,148.3,367.8z M150.9,371.7
			c-1.1-0.2-1.5-1.1-1.3-2.6c1.2,0.3,2.8,0.3,2.6,1.9C151.4,370.9,151.1,371.1,150.9,371.7z M152.8,367.8c-2.4,0.4-2.9-1.1-2.6-3.3
			c1.5-0.9,1.2,0.1,3.3-0.6C153.5,365.4,152.4,365.8,152.8,367.8z M162.6,291.8c1.1-0.2,1.1,0.6,1.9,0.6c-0.3,1.9-1.4,3-3.3,3.3
			C160.6,293.2,163,293.9,162.6,291.8z M167.1,313.9c-1.7-0.3-2.3-1.6-1.9-3.9C167.6,309.6,167.2,311.9,167.1,313.9z M165.9,303.5
			c0-0.4,0-0.9,0-1.3c0.4,0,0.9,0,1.3,0c0,0.4,0,0.9,0,1.3C166.8,303.5,166.3,303.5,165.9,303.5z M167.8,305.4c0-0.6,0-1.3,0-1.9
			C169.7,302.5,169.7,306.4,167.8,305.4z M167.8,300.9C168.8,298.7,169.4,303.4,167.8,300.9L167.8,300.9z M169.8,324.9
			c0,0.4,0,0.9,0,1.3c-0.4,0-0.9,0-1.3,0c0-0.4,0-0.9,0-1.3C168.9,324.9,169.3,324.9,169.8,324.9z M169.1,336.6
			c-2.1-0.5-4.1-1.1-3.9-3.9C167.7,329.6,171.4,333.3,169.1,336.6z M171.1,306.1c2.8-0.4,1.8,3,1.9,5.2c-1.9,0.5-1.7-0.9-3.3-0.6
			C170.8,309.7,169.9,306.9,171.1,306.1z M169.8,292.4c0-0.6,0-1.3,0-1.9C171.6,289.5,171.6,293.4,169.8,292.4z M171.7,304.8
			C173.3,302.2,172.7,306.9,171.7,304.8L171.7,304.8z M173.6,317.1C175.7,314.7,175.8,319.1,173.6,317.1L173.6,317.1z M174.8,308.4
			C174.8,308.7,174.8,308.7,174.8,308.4L174.8,308.4z M175,307.5L175,307.5L175,307.5z M175,307c0-0.1,0-0.2,0-0.2
			S175,306.9,175,307z M186,299c-0.2,1.5-1.8-0.7-2.6-0.6c0.1-0.5,0.6-0.6,0.6-1.3c0.4,0,0.9,0,1.3,0
			C185.3,297.9,185.3,298.8,186,299z M187.3,313.2c0,0.6,0,1.3,0,1.9c-1.4,0.1-2-0.5-1.9-1.9C186,313.2,186.7,313.2,187.3,313.2z
			 M185.4,316.5c1.8,1.3,2.6,4.7,1.3,7.1c1.7-0.1,1.1-2.4,1.9-3.3c1.9-0.1,3.5-0.1,3.3,1.9c-2,0.4-4.6,0.2-4.6,2.6
			c-1.7-0.7-3.2-1.6-5.8-1.3C181.4,321.3,181.3,316.5,185.4,316.5z M189.2,313.2c0-0.4,0-0.9,0-1.3c0.4,0,0.9,0,1.3,0
			c0,0.4,0,0.9,0,1.3C190.1,313.2,189.7,313.2,189.2,313.2z M201.6,307.3c-0.4,0-0.9,0-1.3,0c0-0.4,0-0.9,0-1.3c0.4,0,0.9,0,1.3,0
			C201.6,306.5,201.6,306.9,201.6,307.3z M202.9,316.5c-2.3,0.5-2.2-1-1.3-1.9C202.4,314.8,202.9,315.4,202.9,316.5z M204.8,319.7
			c-0.3,3.2-0.4,2.5,0.6,4.6c-2.4,0.2-6.9-5.6-7.1-1.3c-0.6-0.4-0.7-1.5-1.9-1.3C197.1,317.1,201.8,317.5,204.8,319.7z M205.5,314.5
			c-3.2,0.6-1.2-3.4,0-1.3C205.5,313.7,205.5,314.1,205.5,314.5z M204.8,317.1C207.8,317.6,204.3,321,204.8,317.1L204.8,317.1z
			 M202.9,306.1C203.8,303.9,204.5,308.6,202.9,306.1L202.9,306.1z M201,334c-1.2,3.2-4.9-0.6-3.3-2.6C199.3,331.8,200,333,201,334z
			 M199,323.6c2.3-0.4,2.3,2.3,1.3,3.3C198,327.3,198,324.6,199,323.6z M197.7,353.5c0,0.4,0,0.9,0,1.3c-0.4,0-0.9,0-1.3,0
			c0-0.4,0-0.9,0-1.3C196.8,353.5,197.3,353.5,197.7,353.5z M198.3,310.6c-0.6,0-1.3,0-1.9,0c0-0.6,0-1.3,0-1.9c0.6,0,1.3,0,1.9,0
			C198.3,309.3,198.3,310,198.3,310.6z M196.4,304.2c-0.6,0-1.3,0-1.9,0c0-0.4,0-0.9,0-1.3c0.6,0,1.3,0,1.9,0
			C196.4,303.3,196.4,303.7,196.4,304.2z M191.2,351.5c1.4,0.1,1.4,1.7,1.3,3.3C190.3,355.5,191.4,352.7,191.2,351.5z M187.9,347.6
			c-0.3-2.2,1.9-1.9,2.6-3.3c2-0.4,0.3,3.3,2.6,2.6C191.9,348.4,189.8,348.4,187.9,347.6z M184,343.1c-0.2-1.7,1.3-1.7,2.6-1.9
			c0,0.6,0,1.3,0,1.9C185.4,342,185.8,343.1,184,343.1z M185.4,347.6c0,0.4,0,0.9,0,1.3c-0.4,0-0.9,0-1.3,0c0-0.4,0-0.9,0-1.3
			C184.5,347.6,184.9,347.6,185.4,347.6z M187.9,331.4c1.1-0.1,1.4,0.8,2.6,0.6c0.4,2.6-1.7,2.6-1.9,4.6
			C185.2,335.6,186.5,333.5,187.9,331.4z M193.1,341.8c-1.6,0.1-3.2,0.1-3.3-1.3C190,337.7,194.1,338.5,193.1,341.8z M192.5,331.4
			c1.7,0.1,1.5,2.4,0.6,3.3C191.4,334.6,191.6,332.2,192.5,331.4z M195.1,344.4c-1.3,1.3-1.2-0.3-2.6-0.6
			C192.6,341.9,195.6,342.2,195.1,344.4z M189.9,330.1c-2.5,0.5-2.3-2.9-1.3-3.9c0.6,0.5,1.5,0.7,2.6,0.6
			C191.3,328.5,191.4,330,189.9,330.1z M189.9,342.4c1,0.3-0.3,0.8,0,1.9c-1.3,0.3-1.8-0.4-2.6-0.6
			C187.4,341.4,189.9,343.7,189.9,342.4z M193.1,354.1c1.1-0.2,1.1,0.6,1.9,0.6c-0.1,0.5-0.6,0.6-0.6,1.3c-0.4,0-0.9,0-1.3,0
			C193.1,355.5,193.1,354.8,193.1,354.1z M195.1,359.3c1.3,0.4,1.4,1.1,0.6,1.9c-0.4,0-0.9,0-1.3,0
			C194.3,360.2,195.1,360.1,195.1,359.3z M193.1,316.5c-0.2,0-1.5-3.4,0-4.6C195.8,311.7,194.3,316.5,193.1,316.5z M195.8,318.4
			c0,0.4,0,0.9,0,1.3c-0.4,0-0.9,0-1.3,0c0-0.4,0-0.9,0-1.3C194.9,318.4,195.3,318.4,195.8,318.4z M195.1,325.6
			c2.4,0.4-0.1,3.3,0,5.2c-1.6,0.9-3.2-1.4-3.3,0c-1.4-0.1,0.9-1.7,0-3.3C192.9,326.9,195.3,327.5,195.1,325.6z M181.5,361.3
			c-1.1,0.2-1.1-0.6-1.9-0.6c0.4-0.9,1.4-1.2,2.6-1.3C181.7,359.9,181.4,360.4,181.5,361.3z M182.1,363.8c0.3,1.2-3,1-1.9-0.6
			C181.2,363,181.3,363.8,182.1,363.8z M173.6,338.5C175.3,336,174.6,340.7,173.6,338.5L173.6,338.5z M175.6,321.6
			C173.6,324.1,173.4,319.7,175.6,321.6L175.6,321.6z M175.6,339.2c1.6,0.4,0.4,3.3-1.3,2.6C174.6,340.8,175.2,340.1,175.6,339.2z
			 M175,359.3C177.8,359.6,174.3,363.1,175,359.3L175,359.3z M176.9,349.6C175,352,174.7,347.6,176.9,349.6L176.9,349.6z
			 M176.9,364.5C179.1,363,175.3,366.7,176.9,364.5L176.9,364.5z M176.9,348.3c0-0.6,0-1.3,0-1.9
			C178.8,345.4,178.8,349.2,176.9,348.3z M178.8,335.3c1.1-0.3,1.2,0.5,1.3,1.3c0.8,0.1,1.1-0.2,1.3-0.6c2.3,1.1-1.9,1.1-0.6,3.3
			c-1.3,0.3-1.8-0.4-2.6-0.6C178,337,179.4,337.1,178.8,335.3z M178.2,362.6C180.3,361,176.6,364.7,178.2,362.6L178.2,362.6z
			 M179.5,349.6c1.1-0.2,1.1,0.6,1.9,0.6c0.4,2.7-1.9,2.9-1.3,5.8C176.6,355.4,179.8,351.8,179.5,349.6z M180.2,342.4
			c2-0.3,2.9,0.5,2.6,2.6C181.1,345,180.2,344.1,180.2,342.4z M180.8,325.6c1.4-0.1,2,0.5,1.9,1.9
			C181.3,327.6,180.7,327,180.8,325.6z M184,352.2C182.1,354.6,181.8,350.2,184,352.2L184,352.2z M182.7,306.1
			c-1.9-2.1-2-3.8-0.6-6.5C185.1,299.9,181.6,303.4,182.7,306.1z M180.8,313.2c0-0.6,0-1.3,0-1.9
			C182.7,310.3,182.7,314.2,180.8,313.2z M179.5,304.8c0.2-0.8,1.3-0.6,1.3,0C180.5,305.8,180.2,304.7,179.5,304.8z M178.8,310.6
			c0-0.6,0-1.3,0-1.9C180.8,307.7,180.8,311.6,178.8,310.6z M180.2,328.1c-0.5-0.1-0.6-0.6-1.3-0.6c0-0.4,0-0.9,0-1.3
			C180.2,325.9,180.1,327.2,180.2,328.1z M182.1,332.7c0,0.9,0,1.8,0,2.6c-1.6-0.4-2.3-1.6-3.3-2.6
			C179,331.1,181.7,332.3,182.1,332.7z M178.2,330.1c-1.5,0.2-0.7-1.9-1.9-1.9c0.1-1.6,2.2-0.2,2.6,0
			C178.5,328.7,178.1,329.2,178.2,330.1z M175.6,313.2C177.3,310.7,176.5,315.4,175.6,313.2L175.6,313.2z M176.3,318.4
			c0,0.6,0,1.3,0,1.9c-0.5-0.4-1.1-0.7-1.9-0.6c0.1-0.5,0.6-0.6,0.6-1.3C175.4,318.4,175.8,318.4,176.3,318.4z M174.3,336.6
			c-0.8,0.5-1.8,0.9-3.3,0.6c-0.9-2-0.2-2.2,0-4.6C173,333.1,174.3,334.1,174.3,336.6z M164.6,358c0.6,0,1.3,0,1.9,0
			c0,0.9,0,1.8,0,2.6C164.8,360.8,164.4,359.7,164.6,358z M163.9,354.8c0-0.4,0-0.9,0-1.3c0.4,0,0.9,0,1.3,0c0,0.4,0,0.9,0,1.3
			C164.7,354.8,164.4,354.8,163.9,354.8z M164.6,345.7c0.4-1.3,1.8-1.8,3.3-1.9C167.8,345.7,165.9,347,164.6,345.7z M171.1,354.1
			c-0.3,1.8-2.8,3.7,0.6,3.9c-1.7,3.6-2.3-1.6-4.6-1.3C167.2,354.7,168.6,353.9,171.1,354.1z M169.1,341.8c1.5,0,1.9,1.1,3.9,0.6
			c-0.2,1.5,0.1,2.5,0.6,3.3C173.4,345.7,168.7,344.6,169.1,341.8z M171.7,339.9c-0.4,0-0.9,0-1.3,0c0.1-0.5-0.3-0.6-0.6-0.6
			C169.5,337.9,172.8,338.3,171.7,339.9z M170.4,327.5C171.3,325.3,172.1,330.1,170.4,327.5L170.4,327.5z M164.6,286.6
			C167.4,286.9,163.9,290.3,164.6,286.6L164.6,286.6z M163.9,310c-1.2,1.1-4,0.2-3.9-1.9C162,308,164.3,307.6,163.9,310z
			 M157.4,339.2c-0.5-1.4-1.7-2.2-1.3-4.6c2,0.1,1.9-2,4.6-1.3c1.2,1.6,1.7,4,2.6,5.8C161.8,340.6,160.2,338.5,157.4,339.2z
			 M162,343.1c-0.7,2.4-2.5,3.6-5.2,3.9C153,341.7,159.8,337,162,343.1z M159.4,317.7c-1.2-0.3-0.5-2.6-2.6-1.9
			c1.1-0.8,1.7-2.2,3.9-1.9C161.6,316.5,159.3,315.9,159.4,317.7z M162,324.3c-1.7,0.2-1.7-1.3-1.9-2.6
			C160.9,322.2,162.1,322.6,162,324.3z M160,331.4c-0.1,0.5-0.6,0.6-0.6,1.3c-0.4,0-0.9,0-1.3,0c0-0.6,0-1.3,0-1.9
			C159.1,330.6,159.2,331.4,160,331.4z M158.7,324.9c1,0.3-0.3,0.8,0,1.9c-0.9,0.1-1.9,0.1-1.9-0.6c0-0.4,0-0.9,0-1.3
			C157.9,324.8,158.5,326,158.7,324.9z M162,316.5c0-0.4,0-0.9,0-1.3c0.4,0,0.9,0,1.3,0c0,0.4,0,0.9,0,1.3
			C162.8,316.5,162.4,316.5,162,316.5z M162.6,341.8c0.4,0,0.9,0,1.3,0c0,0.4,0,0.9,0,1.3c-0.4,0-0.9,0-1.3,0
			C162.6,342.7,162.6,342.2,162.6,341.8z M160,295c-0.4,0-0.9,0-1.3,0c0-0.4,0-0.9,0-1.3c0.4,0,0.9,0,1.3,0
			C160,294.2,160,294.6,160,295z M159.4,302.8c-1.6,1.5-4.1,0.3-3.3-2.6C158.3,299.9,159.8,300.5,159.4,302.8z M157.4,319.1
			c0,3.4-4.1,3.7-5.8,1.9C152.7,319.8,155.9,318,157.4,319.1z M150.9,341.8c0.2-1.3,2.9-0.2,2.6-1.9
			C156.8,340.7,151.8,343.1,150.9,341.8z M152.2,315.8C155.1,313.7,156.5,317.4,152.2,315.8L152.2,315.8z M152.8,311.9
			c-0.4,0-0.9,0-1.3,0c0-0.4,0-0.9,0-1.3c0.4,0,0.9,0,1.3,0C152.8,311,152.8,311.5,152.8,311.9z M150.9,302.1c0-0.6,0-1.3,0-1.9
			C152.8,299.2,152.8,303.1,150.9,302.1z M150.9,328.1c-1.1-0.4-0.1-1.1,0-1.9C152,326.6,151,327.3,150.9,328.1z M152.2,328.8
			c-0.3,0.8-0.8,1.3-1.9,1.3C149.9,328.8,151.2,328.8,152.2,328.8z M153.5,347c2.1-0.6,0.9,2.1,1.9,2.6c0.5-1.8,3.2-1,3.9,0.6
			c1.9-0.4,1.2-3.5,3.9-3.3c1.6,1.5,1,2.1,0.6,4.6c-2.6-1.1-4.4-0.9-5.2,1.9c-1.3,0-2.6,0-3.9,0c-0.3-1.6,1.1-1.4,0.6-3.3
			c-2.1-0.5-2,1-2.6,1.9c-1.1-1.1-2.7-1.6-2.6-3.9C152.2,349,152.7,348.7,153.5,347z M162.6,365.8c-1.1-0.4-0.1-1.1,0-1.9
			C163.8,364.4,162.7,365.1,162.6,365.8z M160.7,369.7c0.5,0.5,0.4,1.8,1.3,1.9c-0.4,1-1,1.6-1.9,1.9c-1.9-0.3-2.6-1.8-3.3-3.3
			C158.1,371.8,158.7,369.6,160.7,369.7z M157.4,362.6c0.4-0.5,0.7-1.1,0.6-1.9c0.6,0.7,2.4,0.2,1.9,1.9
			C159.2,362.6,158.3,362.6,157.4,362.6z M160,358c0.3-0.8,1.8-0.5,1.9,0C162.5,359.4,159.6,359.5,160,358z M153.5,355.5
			C154.4,353.3,155.1,357.9,153.5,355.5L153.5,355.5z M150.9,357.4c-0.1-0.8,0.4-0.4,0.6-0.6C154.6,353.7,151.3,360.3,150.9,357.4z
			 M154.2,358.6c1.9,0.4-0.6,1.4,0,2.6C152.6,361.2,154,359.1,154.2,358.6z M160.7,378.8c-1.1,0.8-3.8-1.1-5.8-1.3c0-1.5,0-3,0-4.6
			c3.6-1.1,4.7,2.6,8.5,1.9C162.6,377,158.5,375.6,160.7,378.8z M170.4,372.3c-0.5,0.5-1.8,0.4-1.9,1.3c-2.6-0.4-3.8-2.3-5.8-3.3
			c1.1-3.4,4.9-2.5,7.8-1.3C170.4,370.2,170.4,371.2,170.4,372.3z M168.4,364.5c0.3-1.2,1.4-1.6,1.3-3.3c1.2,0.3,1.7,1.4,3.3,1.3
			c0,1.1,0,2.2,0,3.3C170.6,366.2,169.6,365.4,168.4,364.5z M172.3,369c-1.9-0.4,1-1,0.6-1.9c1.1-0.1,1.4,0.8,2.6,0.6
			C175.9,369.6,172.1,367.3,172.3,369z M175,373.6c-0.4,0-0.9,0-1.3,0c0-0.4,0-0.9,0-1.3c0.4,0,0.9,0,1.3,0
			C175,372.7,175,373.2,175,373.6z M180.8,378.8c-0.4,0-0.9,0-1.3,0c0-0.4,0-0.9,0-1.3c0.4,0,0.9,0,1.3,0
			C180.8,377.9,180.8,378.4,180.8,378.8z M178.8,369.7c-0.9,2.6-2.9,2.8-5.2,1.3c0.4-0.5,0.7-1.1,0.6-1.9c2.2,0.2,5.3-0.5,6.5,0.6
			C180.7,370.5,178.8,370.5,178.8,369.7z M180.2,365.8c0.2-0.9,1.6-0.5,2.6-0.6c0,0.6,0,1.3,0,1.9
			C181,367.6,181.5,365.9,180.2,365.8z M181.5,368.4C182.4,366.3,183.1,371,181.5,368.4L181.5,368.4z M182.1,378.2
			C183.7,375.6,183.1,380.3,182.1,378.2L182.1,378.2z M184.7,376.2c1.9-1,3.3-0.1,3.3,2.6C185.7,379.1,184.2,378.6,184.7,376.2z
			 M187.9,373c-3.2,0.6-1.2-3.4,0-1.3C187.9,372.1,187.9,372.6,187.9,373z M184,367.8c-1.5-0.3,4.4-1.9,3.9,1.3
			C186.2,370.8,185.4,368.2,184,367.8z M193.1,377.5c-0.6,0-1.3,0-1.9,0c0-0.6,0-1.3,0-1.9c0.6,0,1.3,0,1.9,0
			C193.1,376.2,193.1,376.9,193.1,377.5z M198.3,372.3c-0.4,0-0.9,0-1.3,0c0-0.4,0-0.9,0-1.3c0.4,0,0.9,0,1.3,0
			C198.3,371.4,198.3,371.9,198.3,372.3z M199.6,365.2c1.2,2.3-0.7,2.5-1.3,4.6c0.4,0,0.9,0,1.3,0c-1.2,2-4.9-2.4-5.8-0.6
			c-2.1-4.7-6.8-6-11-5.2c0.5-4.8,7.6-4.1,11-2.6c-1.5,2.6,0.3,4.6,1.9,5.8c0.8-0.1,0.5-1.1,0.6-1.9
			C197.4,365.2,198.6,365.2,199.6,365.2z M199.6,344.4C202.6,344.8,199.1,348.3,199.6,344.4L199.6,344.4z M202.2,339.9
			c-0.8-0.1-1.1,0.2-1.3,0.6c-0.8-0.7-1.1-1.9-3.3-1.3c-0.8-4.5,3.7-0.7,3.9-3.3C203,336,201.8,338.7,202.2,339.9z M204.1,327.5
			c0.6-1,4.1,0.7,3.3,3.3C204,331.4,204.6,328.1,204.1,327.5z M206.8,321.6c2-0.1,2.2,1.7,2.6,3.3
			C207.9,324.3,204.7,323.7,206.8,321.6z M208.7,331.4c0,0.9,0,1.8,0,2.6c-1.5,0.2-2.5-0.1-3.3-0.6
			C206.1,332.2,206.7,331,208.7,331.4z M210,346.3c-1-0.4-1.7-1-2.6-1.3c1.4-0.7,1.1-2.6,0.6-3.3c0.3-1,0.8,0.3,1.9,0
			C209.9,344.2,209.2,344.3,210,346.3z M209.3,341.2c-1-1.4-0.7-4.1-2.6-4.6c0.9-1.7,2.9-1.2,4.6-0.6
			C209.4,338.3,214,340.7,209.3,341.2z M211.4,333.3c-0.5-0.1-0.6,0.3-0.6,0.6c-0.8-0.1-0.5-1.1-0.6-1.9
			C211.1,331.8,211.3,332.5,211.4,333.3z M210.7,302.1c0.8,0.3,1.3,0.8,1.3,1.9C211.2,303.8,210.7,303.3,210.7,302.1z M211.4,309.3
			C212.2,307.2,212.9,311.8,211.4,309.3L211.4,309.3z M211.4,301.5c-0.1-1.6-0.1-3.1,0.6-3.9C213.8,298.2,215.1,302.2,211.4,301.5z
			 M213.3,343.7C214.9,341.2,214.2,345.9,213.3,343.7L213.3,343.7z M213.9,338.5c1.1-0.6,1.7-1.8,1.3-3.9c3,0.4,1.1,2.6,1.9,5.8
			C214.7,341.2,216.1,338.1,213.9,338.5z M215.2,329.5c0,0.4,0,0.9,0,1.3c-0.4,0-0.9,0-1.3,0c0-0.4,0-0.9,0-1.3
			C214.4,329.5,214.8,329.5,215.2,329.5z M213.9,303.5c0-0.6,0-1.3,0-1.9C215.9,300.6,215.9,304.4,213.9,303.5z M215.2,332
			c0,0.4,0,0.9,0,1.3c-0.4,0-0.9,0-1.3,0c0-0.4,0-0.9,0-1.3C214.4,332,214.8,332,215.2,332z M215.2,324.3c1.6-0.1,3.1-0.1,3.9,0.6
			C218.5,326.5,215.4,326.4,215.2,324.3z M219.1,308.7c-1.1-0.2-1.5-1.1-1.3-2.6c0.6,0,1.3,0,1.9,0
			C220,307.4,219.3,307.8,219.1,308.7z M219.7,300.2c0.1-0.5,0.6-0.6,0.6-1.3c0.8,0.3,1.3,0.8,1.3,1.9
			C220.7,301.1,220.6,300.3,219.7,300.2z M218.5,313.9C220.1,311.3,219.4,316,218.5,313.9L218.5,313.9z M221.1,341.2
			c0.8,0.3,1.3,0.8,1.3,1.9C220.1,343.7,220.2,342.1,221.1,341.2z M219.1,335.3c0-1.3,1.8-0.8,1.3-2.6c1.8,0.9,1.1,4.1,1.9,5.8
			C218.4,338.9,221.4,336.3,219.1,335.3z M218.5,317.1c2.5,1,1.2-1.8,3.3-1.3c0,0.6,0.8,0.5,1.3,0.6
			C224.1,320,218.2,319.8,218.5,317.1z M222.4,310c0.4,1.8,2.5,1.9,2.6,3.9C222.3,314.4,221.1,311.4,222.4,310z M224.3,337.2
			c-0.8-0.1-0.5-1.1-0.6-1.9c1.1-0.3,1.2,0.5,1.3,1.3C224.4,336.5,224.3,336.9,224.3,337.2z M224.3,320.4c-0.2-3.5,1-2.8,1.3-6.5
			c1.7,0.2,2.8-0.3,2.6-1.9c2.7,0.9-1,2.2,0.6,5.2c-1.1,0.2-3.3-0.6-2.6,1.3c-0.1,1.4,2.3,0.3,3.3,0.6c-0.5,0.6-0.7,1.5-0.6,2.6
			C226.9,321.7,225.7,320.8,224.3,320.4z M225.6,301.5c1.3-0.3,1.7,0.4,2.6,0.6c0.3,1.3-0.4,1.7-0.6,2.6
			C225.5,305,225.5,303.4,225.6,301.5z M230.8,310c0.6-0.5,1.5-0.7,2.6-0.6c0,0.9,0,1.8,0,2.6C231.7,312.1,230.6,311.7,230.8,310z
			 M232.8,314.5c0,0.4,0,0.9,0,1.3c-0.4,0-0.9,0-1.3,0c0-0.4,0-0.9,0-1.3C231.9,314.5,232.3,314.5,232.8,314.5z M232.8,303.5
			c-1.7,0.2-2.1-0.9-1.9-2.6c0.6,0,1.3,0,1.9,0C232.8,301.8,232.8,302.6,232.8,303.5z M232.1,299.6c-2.5,0.5-2.5-3.1,0-2.6
			C232.1,297.8,232.1,298.7,232.1,299.6z M232.1,325.6c-0.5,1-0.5,2.6-2.6,1.9C229.3,325.8,230.4,325.4,232.1,325.6z M228.8,307.3
			C231,305.8,227.3,309.5,228.8,307.3L228.8,307.3z M230.1,341.2c-0.4,0-0.9,0-1.3,0c0-0.4,0-0.9,0-1.3c0.4,0,0.9,0,1.3,0
			C230.1,340.3,230.1,340.7,230.1,341.2z M226.9,335.3c2.1-0.6,2.1-3.4,1.9-6.5c4.8-0.2,2.4,6.3,3.3,8.5
			C230.2,336.8,230,334.5,226.9,335.3z M233.4,328.8c-0.4,0-0.9,0-1.3,0c0-0.6,0-1.3,0-1.9c0.6,0,1.3,0,1.9,0
			C234.3,327.9,233.4,328,233.4,328.8z M233.4,317.7c-0.2-3.7,3.7-2.8,1.9-6.5c1.9,0.5,3.3,1.5,3.9,3.3c-3.3,0.2-1.1,4.4-1.3,7.1
			C235.7,321.1,236.8,317.1,233.4,317.7z M238.6,308c-0.5,1-1,2-2.6,1.9C235.8,308.2,237.4,308.3,238.6,308z M236,290.5
			c1.1,0.2,1.5,1.1,1.3,2.6C236.4,292.6,236.1,291.7,236,290.5z M239.9,326.8c-2.4,0.6-0.9-2.6-1.3-3.9
			C241,322.3,239.5,325.5,239.9,326.8z M239.2,321.6c-1.1-1.2,0.2-3.6,0.6-5.2C242.9,315.8,242.7,323,239.2,321.6z M239.9,336.6
			c-0.6,0-1.3,0-1.9,0c0-0.6,0-1.3,0-1.9c0.6,0,1.3,0,1.9,0C239.9,335.3,239.9,336,239.9,336.6z M239.2,332
			c-0.5-0.6-0.7-1.5-0.6-2.6c2-0.4,2.4,0.7,3.9,0.6C241.9,331.2,241.3,332.4,239.2,332z M243,333.2C243,333.3,242.9,333.3,243,333.2
			L243,333.2z M241.9,307.3c-1.4-0.3,1.2-2.9,1.9-1.3C243.6,307,241.9,306.3,241.9,307.3z M243.8,300.2c1.6,0.4,3.2,4.1,0,3.9
			C244.1,302.1,242.4,301.6,243.8,300.2z M243.2,291.1C244.1,289,244.8,293.7,243.2,291.1L243.2,291.1z M250.9,300.2
			c-2.2-0.3-3.3-4-1.9-5.8c1.8-0.4,1.3,1.3,2.6,1.3C250.8,298,251.6,298.1,250.9,300.2z M246.3,295.7c-2.2-0.4-1-3.1-0.6-4.6
			c2.1-0.5,2,1.1,3.3,1.3C248.9,294.3,245.9,293.2,246.3,295.7z M245.1,306.7C247.2,305.1,243.5,308.9,245.1,306.7L245.1,306.7z
			 M244.4,319.1c0.4,0,0.9,0,1.3,0c0,0.4,0,0.9,0,1.3c-0.4,0-0.9,0-1.3,0C244.4,319.9,244.4,319.5,244.4,319.1z M246.3,327.5
			c-1.7-0.1-1.3-2.2-1.3-3.9c2-0.4,2.4,0.7,3.9,0.6C248.9,326.2,247,326.2,246.3,327.5z M248.4,312.5c1-1.9-0.5-2.2,0.6-3.9
			C251,308.7,250.2,312.6,248.4,312.5z M250.3,321c1.8,0.4,2.6,1.8,2.6,3.9C250.5,325.1,250.9,322.5,250.3,321z M250.9,313.9
			c1.1-0.3,1.2,0.5,1.3,1.3c-0.5-0.1-0.6,0.3-0.6,0.6C250.8,315.7,251,314.7,250.9,313.9z M250.9,307.3c-2.1-0.5-2.8-2.4-2.6-5.2
			c0.9-0.9,2.8-0.6,4.6-0.6C252.2,303.5,252,305.8,250.9,307.3z M262.7,291.8c-0.7,1.2-0.8,3.1-3.3,2.6c0.1-1.1-0.8-1.4-0.6-2.6
			C259.6,290.9,261.8,290.9,262.7,291.8z M261.3,288.6C261.7,285.9,260.8,292.4,261.3,288.6L261.3,288.6z M258.7,308
			C260.9,306.5,257.2,310.2,258.7,308L258.7,308z M260,317.1c0,0.4,0,0.9,0,1.3c-0.9,0-1.8,0-2.6,0c0-0.4,0-0.9,0-1.3
			C258.3,317.1,259.1,317.1,260,317.1z M254.8,287.2c0.1-1.9,3.1-1.6,2.6,0.6C256,288.1,255.7,287.4,254.8,287.2z M256.7,301.5
			c0,0.4,0,0.9,0,1.3c-0.4,0-0.9,0-1.3,0c0-0.4,0-0.9,0-1.3C255.9,301.5,256.3,301.5,256.7,301.5z M256.1,282.7
			c-2.6,0.4-2.6,0.5-4.6-0.6c-0.2-3.7,2.6-4.3,6.5-3.9C257.7,280,256.5,280.9,256.1,282.7z M253.5,288.6c-2.3,0.4-2.3-2.3-1.3-3.3
			C253.6,285.7,254.9,287.2,253.5,288.6z M255.5,295c-0.1,0.9-0.1,1.9,0.6,1.9c-0.2,2.3-2.9-1.1-2.6,0.6
			C252.4,297.6,254.2,294.8,255.5,295z M253.5,315.8C254.5,313.7,255.2,318.4,253.5,315.8L253.5,315.8z M257.5,312.5
			c-1.8,0.4-1.3-1.3-2.6-1.3C255.1,309.9,257.9,311.1,257.5,312.5z M260.7,326.8c-3.2-1.3-3.5-1.7-5.2-3.9c2,0.4,4.2,0.5,5.8,1.3
			C261.6,325.6,260.9,325.9,260.7,326.8z M260.7,322.9c0-1.5,0-3,0-4.6C263.9,317.2,263.2,324,260.7,322.9z M261.9,330.1
			c0.2-0.8,1.3-0.6,1.3,0C263,331,262.7,330,261.9,330.1z M263.9,299.6c-0.6,0.4-1.1,0.8-1.3,0c0-0.4,0-0.9,0-1.3
			c1.1-0.2,1.7,1.1,1.9,0c0.9,0.2,0.5,1.6,0.6,2.6C264.1,301.1,264,300.4,263.9,299.6z M263.9,272.3c0.8,0.3,1.3,0.8,1.3,1.9
			C263,274.8,263,273.2,263.9,272.3z M263.9,295.7c0-0.6,0-1.3,0-1.9C265.8,292.8,265.8,296.7,263.9,295.7z M265.2,282
			c-1.5-0.5-1.8-4-0.6-5.2C268,276.8,265.8,280.6,265.2,282z M265.8,295.7C268.6,296,265.2,299.4,265.8,295.7L265.8,295.7z
			 M267.9,311.3c2.6,0.7,1.9,1.9,2.6,5.2c-2.3,0.5-3.9-1.9-4.6,0.6C264.4,315.6,268.5,314,267.9,311.3z M267.9,304.8
			C270,303.2,266.3,307,267.9,304.8L267.9,304.8z M281.4,250.8c1.4-0.1,2,0.5,1.9,1.9C282,253,281.3,252.3,281.4,250.8z
			 M283.4,255.4c0,0.4,0,0.9,0,1.3c-0.4,0-0.9,0-1.3,0c0-0.4,0-0.9,0-1.3C282.6,255.4,283,255.4,283.4,255.4z M284.7,269.7
			c2.6,2,1,4.8,1.9,7.8c-4.1-1-7.5-2.4-8.5-7.8C280.5,270.9,281.7,269.4,284.7,269.7z M284.7,258.7c1.5,0.2,1.5,1.8,0.6,2.6
			C283.8,261.1,283.9,259.6,284.7,258.7z M299,248.3c1.9,0.1,1.8,3.9-0.6,3.3c0.1-1.1-0.8-1.4-0.6-2.6
			C298.4,249,298.9,248.8,299,248.3z M297.7,239.2c0.2-0.8,1.3-0.6,1.3,0C298.7,240.1,298.4,239.1,297.7,239.2z M299,233.3
			c0.4-1,1-1.7,1.3-2.6C301.7,230.9,300.5,233.8,299,233.3z M302.2,261.2c-2.5,0.4-3.7,1.9-5.8,2.6
			C297.5,261.4,300.3,257,302.2,261.2z M307.4,247.6c0,0.9,0,1.8,0,2.6C305,250.8,305,247.1,307.4,247.6z M304.9,259.9
			c0-0.6,0-1.3,0-1.9C306.7,257.1,306.7,260.9,304.9,259.9z M306.8,232.1c0.6,1.4-2.4,1.5-1.9,0C305,231.3,306.5,231.5,306.8,232.1z
			 M306.1,218.4c-0.2-1.7,0.9-2.1,2.6-1.9C308.9,218.1,307.3,218.1,306.1,218.4z M304.9,245c0.4,0,0.9,0,1.3,0
			c0.3,1.4-1,1.2-1.9,1.3C304.3,245.8,304.9,245.6,304.9,245z M302.8,319.1c-0.4,0-0.9,0-1.3,0c0-0.6,0-1.3,0-1.9
			c1.1-0.2,1.1,0.6,1.9,0.6C303.4,318.3,302.8,318.4,302.8,319.1z M302.2,324.9C304.4,323.4,300.6,327.1,302.2,324.9L302.2,324.9z
			 M299.7,284c0.3,1.4-1,1.2-1.9,1.3c0.1-0.5,0.6-0.6,0.6-1.3C298.8,284,299.2,284,299.7,284z M299,271.6c0.8,0.3,1.3,0.8,1.3,1.9
			C298,274.2,298.1,272.6,299,271.6z M299,316.5c0.2,1.1-1.1,1.7,0,1.9c-0.2,1.4-2.3-0.7-1.9-1.9C297.7,316.5,298.3,316.5,299,316.5
			z M300.3,319.7c0.1,0.5-0.3,0.6-0.6,0.6c-1.3,0.2-0.2,2.8-1.3,3.3C295.6,322.8,298.3,319.7,300.3,319.7z M300.3,293.8
			c0.1-0.8,1.1-0.5,1.9-0.6C302.1,293.9,301.1,293.6,300.3,293.8z M302.8,282.7c-1.7,0.2-2.1-0.9-1.9-2.6c0.9,0,1.8,0,2.6,0
			C303.6,281.3,302.8,281.4,302.8,282.7z M302.2,270.3c1.2,0.3,2.8,0.3,2.6,1.9C303.1,272.5,302,272.1,302.2,270.3z M304.9,265.1
			C301.1,266.6,301.9,263.3,304.9,265.1L304.9,265.1z M302.8,248.9c0-0.4,0-0.9,0-1.3c0.5,0.1,0.6-0.3,0.6-0.6
			C304.8,246.7,304.5,250,302.8,248.9z M304.2,204.1c-0.4,0-0.9,0-1.3,0c0-0.4,0-0.9,0-1.3c0.4,0,0.9,0,1.3,0
			C304.2,203.3,304.2,203.7,304.2,204.1z M302.2,207.4c0-0.9,0-1.8,0-2.6C304.7,204.2,304.7,207.8,302.2,207.4z M302.8,245
			c0,0.4,0,0.9,0,1.3c-0.4,0-0.9,0-1.3,0c0-0.4,0-0.9,0-1.3C302,245,302.5,245,302.8,245z M296.4,210c-0.4,0-0.9,0-1.3,0
			c0-0.4,0-0.9,0-1.3c0.4,0,0.9,0,1.3,0C296.4,209.1,296.4,209.5,296.4,210z M296.4,289.8c0,0.4,0,0.9,0,1.3c-0.4,0-0.9,0-1.3,0
			c0-0.4,0-0.9,0-1.3C295.5,289.8,296,289.8,296.4,289.8z M293.8,307.3c1.1,0.6,2.3,1.2,1.9,3.3
			C293.8,310.9,294.4,308.5,293.8,307.3z M295.7,324.3c0,0.4,0,0.9,0,1.3c-0.4,0-0.9,0-1.3,0c0-0.4,0-0.9,0-1.3
			C294.9,324.3,295.3,324.3,295.7,324.3z M289.9,330.1c-0.7,0.6-0.2,2.4-1.9,1.9c0-0.6,0-1.3,0-1.9
			C288.6,330.1,289.3,330.1,289.9,330.1z M289.4,327.8C289.4,327.9,289.5,327.9,289.4,327.8C289.4,328,289.4,327.9,289.4,327.8z
			 M285.4,323.6c-1.9-0.4,0.6-1.4,0-2.6c2,1.7,2.6,0.8,5.2,0C289.6,323.9,285.8,321.4,285.4,323.6z M282.7,337.2
			c-0.5,1.5-4,1.8-5.2,0.6c-0.2-3.8,3.2-3.3,5.2-1.9C282.4,336.5,282,337.1,282.7,337.2z M278.2,343.7
			C279.8,341.2,279.1,345.9,278.2,343.7L278.2,343.7z M282.7,282c0.2,1.1-0.6,1.1-0.6,1.9c-0.4,0-0.9,0-1.3,0c0-0.6,0-1.3,0-1.9
			C281.4,282,282.1,282,282.7,282z M281.4,276.8C283.9,278.8,279.5,279,281.4,276.8L281.4,276.8z M285.4,279.5c0.6,0,1.3,0,1.9,0
			c-0.4,2.6-0.4,2.6,0,5.2c-1.4-0.3-1.2,1-1.3,1.9c-0.6,0-1.3,0-1.9,0C283,283.5,286.1,282.8,285.4,279.5z M286,289.8
			c0.6,1.9-1.4,1.1-2.6,1.3C283.8,290.2,284.8,289.9,286,289.8z M288.6,298.3c0.1,1.1-0.8,1.4-0.6,2.6c-1-0.5-2.6-0.5-1.9-2.6
			C286.9,298.3,287.8,298.3,288.6,298.3z M283.4,301.5c-2.6,0.4-2.2-2.8-0.6-3.3C284.4,298.4,284.2,300.7,283.4,301.5z M284.7,304.2
			c0,0.4,0,0.9,0,1.3c-0.4,0-0.9,0-1.3,0c0-0.4,0-0.9,0-1.3C283.8,304.2,284.2,304.2,284.7,304.2z M282.1,284.6c0,0.4,0,0.9,0,1.3
			c-0.4,0-0.9,0-1.3,0c0-0.4,0-0.9,0-1.3C281.2,284.6,281.7,284.6,282.1,284.6z M280.8,319.1c-2.7-0.1-2-3.6-0.6-4.6
			C282,314.6,283.2,318.6,280.8,319.1z M280.2,326.2c2.4-0.4,1.8,5.6-0.6,4.6C279.5,329,279.2,327.1,280.2,326.2z M280.8,325.6
			c0.4-0.5,0.7-1.1,0.6-1.9c0.9,0.6,2.4,0.6,3.3,1.3C283.5,326.7,283,325.5,280.8,325.6z M289.3,317.1c1.6,0.1,0.2,2.2,0,2.6
			C287.6,319.6,289.1,317.5,289.3,317.1z M287.9,314.5c-4.1-3.3,2.9-6.6,5.2-3.3C292.7,313.7,290.1,313.9,287.9,314.5z M290.5,305.4
			c0-0.6,0-1.3,0-1.9C292.4,302.5,292.4,306.4,290.5,305.4z M290.5,298.3c0-0.4,0-0.9,0-1.3c1.4-0.3,1.2,1,1.3,1.9
			C291.3,298.8,291.2,298.3,290.5,298.3z M290.5,291.8c0.8-0.6,4.8-0.5,4.6,1.9C293.8,294.9,291.1,293.4,290.5,291.8z M293.8,283.4
			c0,0.4,0,0.9,0,1.3c-0.4,0-0.9,0-1.3,0c0-0.4,0-0.9,0-1.3C293,283.4,293.3,283.4,293.8,283.4z M292.5,266.4c0-0.4,0-0.9,0-1.3
			c0.4,0,0.9,0,1.3,0c0,0.4,0,0.9,0,1.3C293.3,266.4,293,266.4,292.5,266.4z M294.5,301.5C295.3,299.4,296.1,304.1,294.5,301.5
			L294.5,301.5z M293.8,271.6c0.2-0.8,1.3-0.6,1.3,0C294.8,272.6,294.6,271.6,293.8,271.6z M291.8,262c-0.5-0.8-0.9-1.8-0.6-3.3
			c0.9,0,1.8,0,2.6,0C294.6,260.5,294.1,261.6,291.8,262z M291.2,287.2c0,0.9,0,1.8,0,2.6c-1.7,0.2-2.8-0.3-2.6-1.9
			C289.2,287.4,290.1,287.2,291.2,287.2z M288.6,276.2C289.5,274,290.2,278.7,288.6,276.2L288.6,276.2z M287.3,244.4
			C289.3,241.9,289.4,246.4,287.3,244.4L287.3,244.4z M287.3,295.7c0-0.6,0-1.3,0-1.9C289.2,292.8,289.2,296.7,287.3,295.7z
			 M287.3,254.1c-0.4,0-0.9,0-1.3,0c0-0.4,0-0.9,0-1.3c0.4,0,0.9,0,1.3,0C287.3,253.2,287.3,253.7,287.3,254.1z M279.5,280.1
			c0,0.4,0,0.9,0,1.3c-0.4,0-0.9,0-1.3,0c0-0.4,0-0.9,0-1.3C278.6,280.1,279,280.1,279.5,280.1z M280.8,306.7
			c-0.4,1.5-1.1,2.7-3.3,2.6c0-0.9,0-1.8,0-2.6C278.6,306.7,279.7,306.7,280.8,306.7z M276.9,291.8c-2.1-1,1.3-1.6,0.6-3.3
			c0.9,0.2,0.5,1.6,0.6,2.6C277.5,291,277,291.3,276.9,291.8z M276.2,324.9c0,0.4,0,0.9,0,1.3c-0.4,0-0.9,0-1.3,0c0-0.4,0-0.9,0-1.3
			C275.4,324.9,275.8,324.9,276.2,324.9z M275,306.7C275.9,304.6,276.6,309.3,275,306.7L275,306.7z M273.7,299c0.6,0,1.3,0,1.9,0
			c-0.2,2.4,0.1,4.2,0.6,5.8C273,304,272.5,301.6,273.7,299z M272.3,310.6c-0.4,1.3,1.1,4.5-1.3,3.9
			C270,313.4,270.3,310.4,272.3,310.6z M269.8,301.5c2.3-0.3,3.3,4,1.9,5.2C270,306.1,268.4,303.2,269.8,301.5z M273.1,330.8
			c0.2,1.1-0.6,1.1-0.6,1.9c-0.4,0-0.9,0-1.3,0c0-0.6,0-1.3,0-1.9C271.7,330.8,272.3,330.8,273.1,330.8z M271.7,295.7
			c-0.3-1.3,0.4-1.7,0.6-2.6c1.1,0.2,1.5,1.1,1.3,2.6C273.1,295.7,272.3,295.7,271.7,295.7z M276.2,268.4c0-0.6,0-1.3,0-1.9
			C278.2,265.5,278.2,269.4,276.2,268.4z M276.9,282.7c-0.3,1.5-0.4,3.1-2.6,2.6c0.5-0.6,0.7-1.5,0.6-2.6
			C275.6,282.7,276.2,282.7,276.9,282.7z M273.7,282.7c-1.9-0.1-1.6-3.1,0.6-2.6C274.5,281.4,273.8,281.8,273.7,282.7z M273.7,276.8
			c0.2-1.5,1.8-1.5,2.6-0.6C275.7,278.1,275.3,276.9,273.7,276.8z M273.7,273.6c-0.4,0-0.9,0-1.3,0c0-0.4,0-0.9,0-1.3
			c0.4,0,0.9,0,1.3,0C273.7,272.7,273.7,273.1,273.7,273.6z M276.9,285.9c-0.4,2.9-3.3,1-5.8,2.6
			C270.9,284.2,274.9,287.3,276.9,285.9z M270.4,292.4C272.6,290.9,268.8,294.6,270.4,292.4L270.4,292.4z M269.1,287.9
			c1.1,0.6,2.3,1.2,1.9,3.3C269.1,291.4,269.7,289,269.1,287.9z M268.5,321c0,0.4,0,0.9,0,1.3c-0.4,0-0.9,0-1.3,0c0-0.4,0-0.9,0-1.3
			C267.6,321,268,321,268.5,321z M270.4,337.9c-0.9-0.1-1.9-0.1-1.9,0.6c-1.1-0.3-0.5-2-2.6-1.3c1-1.4,1.8-3.1,4.6-2.6
			C270.8,336.7,270.8,335.9,270.4,337.9z M269.8,332.7c-3-0.3-0.4-4.2-0.6-5.8C271.6,327.9,267.9,329.8,269.8,332.7z M267.9,324.9
			c1-1.9,1.4-0.5,3.9-1.3C270.8,325.5,270.2,324.2,267.9,324.9z M275.6,336.6c-1.7,1.4-0.8,5.3-4.6,4.6
			C271.9,338.7,272.4,334.7,275.6,336.6z M273.1,347.6c0,0.4,0,0.9,0,1.3c-0.4,0-0.9,0-1.3,0c0-0.4,0-0.9,0-1.3
			C272.2,347.6,272.6,347.6,273.1,347.6z M271.7,352.8c0.1-1.9,3.1-1.6,2.6,0.6C273.8,353,272.9,352.8,271.7,352.8z M274.3,354.8
			c1.4-0.4,0.9,1.2,1.9,1.3C276.5,357.2,273.8,356.1,274.3,354.8z M275.6,350.3C277.2,347.7,276.6,352.4,275.6,350.3L275.6,350.3z
			 M275.6,328.8c0-0.6,0-1.3,0-1.9c0.6,0.4,1.1,0.8,1.3,0C278.1,326.6,276.9,329.4,275.6,328.8z M278.2,356.7c1-0.8,1.6-1.9,3.3-1.9
			C280.4,355.4,280.4,357.1,278.2,356.7z M282.1,358.6c-0.4,0-0.9,0-1.3,0c0-0.4,0-0.9,0-1.3c0.4,0,0.9,0,1.3,0
			C282.1,357.8,282.1,358.3,282.1,358.6z M284.7,352.8c-3.8,0.4-2.3-4.7-5.2-5.2c-1.8-0.2,0.6,3.6-1.9,2.6c-0.9-1.5,1.7-2.5,0-2.6
			c1.9-2.1,4.3-0.8,6.5,0c-0.4,0.6-1.1,1-1.9,1.3C283.3,349.9,285.6,349.8,284.7,352.8z M285.4,351.5c1-2.9,2.6,0.1,2.6,1.9
			C285.5,354.4,287.9,350.6,285.4,351.5z M286,343.7C288.4,345.7,284.1,345.9,286,343.7L286,343.7z M288.6,348.9c0-0.6,0-1.3,0-1.9
			C290.5,346,290.5,349.9,288.6,348.9z M287.9,345.7c0.2-1.1,1.1-1.5,2.6-1.3C290.9,346.4,288.9,346.7,287.9,345.7z M287.9,339.2
			c-0.1-2.5-2.9-2.2-4.6-3.3c0.3-1.2,1.4-1.7,1.3-3.3c3.6-0.6,2.2,3.8,6.5,2.6C291.7,338.2,290.1,338.9,287.9,339.2z M291.7,346
			C291.6,346.3,291.6,346.5,291.7,346L291.7,346z M291.7,345.5c0-0.1,0-0.3,0.1-0.4C291.8,345.2,291.8,345.4,291.7,345.5z
			 M291.9,344.6c0-0.1,0-0.2,0-0.2C291.9,344.5,291.9,344.5,291.9,344.6z M293.1,330.1c-0.4,0-0.9,0-1.3,0c0-0.4,0-0.9,0-1.3
			c0.4,0,0.9,0,1.3,0C293.1,329.2,293.1,329.6,293.1,330.1z M293.1,327.5c-1.3,0.3-1.8-0.4-2.6-0.6c0.2-1.1,1.1-1.5,2.6-1.3
			C293.1,326.2,293.1,326.8,293.1,327.5z M291.8,323.6c-0.3-1.3,0.4-1.8,0.6-2.6c1.1-0.2,1.1,0.6,1.9,0.6
			C294.6,323.4,293.5,323.8,291.8,323.6z M294.5,329.5c2.2-0.3,3.6,0.3,5.2,0.6c0,2.1-1.1,3.3-0.6,5.8
			C297,334.2,295.1,332.5,294.5,329.5z M297,334.7c-0.4,0.5-0.7,1.1-0.6,1.9c-0.8-0.3-1.3-0.8-1.3-1.9
			C295.7,334.7,296.4,334.7,297,334.7z M297,337.2c-1.5,2.6,0.8,2.4,0.6,5.2C296,342.1,293.4,337.3,297,337.2z M299,348.9
			c-1.1-0.8-2.6-1.3-2.6-3.3c0.9-0.9,2.8-0.6,4.6-0.6C301.2,347.3,298.1,346,299,348.9z M304.9,330.1c0.1,2.5,0.7,1.9,0,3.9
			c-1.1,0-2.2,0-3.3,0C300.4,331.7,301.5,329.6,304.9,330.1z M301.6,339.2c-0.9-1.6,1.9-2.7,0-3.3c1-1.4,1.6,0.4,3.3-0.6
			c-0.4,1.7,0.3,2.4,1.9,1.9C306.2,339.5,303.5,340.1,301.6,339.2z M306.1,326.2c0.1-0.5,0.6-0.6,0.6-1.3c0.4,0,0.9,0,1.3,0
			C308.4,326.3,307.2,326.1,306.1,326.2z M308,334.7c0.4,0,0.9,0,1.3,0c0,0.4,0,0.9,0,1.3c-0.4,0-0.9,0-1.3,0
			C308,335.5,308,335.1,308,334.7z M308,322.9c0-0.9,0-1.8,0-2.6C310.6,319.9,310.6,323.5,308,322.9z M310.1,341.8
			c-0.4,0-0.9,0-1.3,0c0-0.4,0-0.9,0-1.3c0.4,0,0.9,0,1.3,0C310.1,340.9,310.1,341.4,310.1,341.8z M310.1,328.8
			c0.1-0.3,1.4-1.1,1.9-0.6C313.2,329.3,309.1,331.2,310.1,328.8z M311.3,308c1.3,1.1-2.9,3.1-1.9,0.6
			C309.4,308.4,310.8,307.5,311.3,308z M308,304.2c1.6,0.4,2.9,2.7,0,2.6C308,305.8,308,305,308,304.2z M312,313.9
			c-1.9-0.4-4-0.8-3.9-3.3C309.5,311.6,312.3,311.2,312,313.9z M308.7,317.1c-0.3,1-0.5-0.1-1.3,0
			C307.6,316.3,308.7,316.4,308.7,317.1z M306.8,316.5c-0.4,0-0.9,0-1.3,0c0.1-0.5-0.3-0.6-0.6-0.6c0.4-0.6,1.5-0.7,1.3-1.9
			C307,314,306.6,315.4,306.8,316.5z M306.1,306.7c0,0.4,0,0.9,0,1.3c-0.4,0-0.9,0-1.3,0c0-0.4,0-0.9,0-1.3
			C305.2,306.7,305.7,306.7,306.1,306.7z M305.5,295.7c-0.4,0-0.9,0-1.3,0c0-0.4,0-0.9,0-1.3c0.4,0,0.9,0,1.3,0
			C305.5,294.8,305.5,295.3,305.5,295.7z M306.1,262.6c-1.3-0.4-1.4-1.1-0.6-1.9c0.4,0,0.9,0,1.3,0
			C306.5,261.2,306.1,261.7,306.1,262.6z M308.7,280.7c-0.8-0.3-1.3-0.8-1.3-1.9c0.6,0,1.3,0,1.9,0
			C309,279.3,308.7,279.8,308.7,280.7z M310.1,247C312.2,245.4,308.5,249.2,310.1,247L310.1,247z M310.7,195.1c-0.4,0-0.9,0-1.3,0
			c0.1-0.5-0.3-0.6-0.6-0.6C308.5,193.1,311.7,193.5,310.7,195.1z M310.1,111.2c1.4-0.3,1.2,1,1.3,1.9c-0.5-0.1-0.6-0.6-1.3-0.6
			C310.1,112.1,310.1,111.7,310.1,111.2z M310.1,119.7c0.4,0,0.9,0,1.3,0c0,0.6,0,1.3,0,1.9c-0.6,0-1.3,0-1.9,0
			C309.2,120.6,310,120.5,310.1,119.7z M310.7,135.9c-0.4,0-0.9,0-1.3,0c0.1-0.5-0.3-0.6-0.6-0.6C308.5,134,311.7,134.3,310.7,135.9
			z M309.4,179.5c0.4,0,0.9,0,1.3,0c0.3,1.4-1,1.2-1.9,1.3C308.8,180.3,309.4,180.1,309.4,179.5z M308.7,187.2c0,0.4,0,0.9,0,1.3
			c-0.4,0-0.9,0-1.3,0c0-0.4,0-0.9,0-1.3C307.9,187.2,308.3,187.2,308.7,187.2z M306.1,102.8c0.4,0,0.9,0,1.3,0c0,0.4,0,0.9,0,1.3
			c-0.4,0-0.9,0-1.3,0C306.1,103.7,306.1,103.2,306.1,102.8z M306.8,195.7c-2.3,0.2-3.4-1-3.3-3.3
			C306.1,192.1,306.4,193.9,306.8,195.7z M302.2,198.9C304.6,200.9,300.3,201.1,302.2,198.9L302.2,198.9z M300.9,138.6
			C302.6,136,301.9,140.7,300.9,138.6L300.9,138.6z M301.6,91.8c-0.3,1-0.5-0.1-1.3,0C300.5,91,301.6,91.2,301.6,91.8z M299.7,189.2
			c0-0.6,0-1.3,0-1.9C301.5,186.2,301.5,190.1,299.7,189.2z M298.3,130.1c1.1,0.6,2.5,1.4,1.3,2.6
			C297.6,133,297.3,131.1,298.3,130.1z M297.7,171.6c1.9-1,1.9,2.9,0,1.9C297.7,172.9,297.7,172.3,297.7,171.6z M299.7,178.1
			c-0.8-1.1-2.2-1.7-1.9-3.9C299.4,174.5,300.9,176.8,299.7,178.1z M296.4,183.3c1.4-0.1,2,0.5,1.9,1.9c-0.6,0-1.3,0-1.9,0
			C296.4,184.7,296.4,184,296.4,183.3z M297.7,193.7c-2,0.3-2.9-0.5-2.6-2.6C297.3,190.7,297.5,192.2,297.7,193.7z M295.7,182.7
			c0,0.4,0,0.9,0,1.3c-0.4,0-0.9,0-1.3,0c0-0.4,0-0.9,0-1.3C294.9,182.7,295.3,182.7,295.7,182.7z M294.5,177.5
			c-0.1,0.5,0.3,0.6,0.6,0.6c0,0.4,0,0.9,0,1.3c-0.5-0.1-0.6,0.3-0.6,0.6c-0.4,0-0.9,0-1.3,0c0.1-0.5-0.3-0.6-0.6-0.6
			c0-0.4,0-0.9,0-1.3c0.5,0.1,0.6-0.3,0.6-0.6C293.6,177.5,294,177.5,294.5,177.5z M291.8,174.9c0.4,0,0.9,0,1.3,0
			c0,0.4,0,0.9,0,1.3c-0.4,0-0.9,0-1.3,0C291.8,175.8,291.8,175.3,291.8,174.9z M288.6,165.8c-1.1,0.2-1.1-0.6-1.9-0.6
			c0.1-0.5,0.6-0.6,0.6-1.3C288.1,164.1,288.6,164.7,288.6,165.8z M286,143.1c0.2-0.8,1.3-0.6,1.3,0C287,144,286.7,143,286,143.1z
			 M287.9,104.7c0,0.9,0,1.8,0,2.6c-1.7,0.2-2.8-0.3-2.6-1.9C285.9,104.9,286.8,104.7,287.9,104.7z M284.7,132
			c1.3,1.1-2.9,3.1-1.9,0.6C282.8,132.4,284.2,131.5,284.7,132z M283.4,157.3c0,0.4,0,0.9,0,1.3c-0.4,0-0.9,0-1.3,0
			c0-0.4,0-0.9,0-1.3C282.6,157.3,283,157.3,283.4,157.3z M281.4,78.8c0.4,0,0.9,0,1.3,0c0,0.4,0,0.9,0,1.3c-0.4,0-0.9,0-1.3,0
			C281.4,79.7,281.4,79.3,281.4,78.8z M280.8,115.1C281.8,113,282.4,117.7,280.8,115.1L280.8,115.1z M278.9,134.6
			C281.1,133.1,277.3,136.8,278.9,134.6L278.9,134.6z M278.2,139.8C279.8,137.3,279.1,142,278.2,139.8L278.2,139.8z M272.3,121
			C275.2,121.3,271.6,124.7,272.3,121L272.3,121z M271.7,82.7c0.5,0.1,0.6-0.3,0.6-0.6c1.2-0.3,1,3-0.6,1.9
			C271.7,83.6,271.7,83.1,271.7,82.7z M271,90.4C272,88.3,272.7,93,271,90.4L271,90.4z M262.7,128.8c1.9-1,1.9,2.9,0,1.9
			C262.7,130.1,262.7,129.4,262.7,128.8z M256.1,98.3C258.9,98.6,255.4,102.1,256.1,98.3L256.1,98.3z M255.5,109.3
			c0.6,0,1.3,0,1.9,0c0,0.4,0,0.9,0,1.3c-0.6,0-1.3,0-1.9,0C255.5,110.2,255.5,109.7,255.5,109.3z M253.5,79.4
			C255.2,76.9,254.5,81.6,253.5,79.4L253.5,79.4z M246.3,103.5c-0.3,1-0.5-0.1-1.3,0C245.3,102.6,246.3,102.8,246.3,103.5z
			 M247.1,106c0,0.4,0,0.9,0,1.3c-0.4,0-0.9,0-1.3,0c0-0.4,0-0.9,0-1.3C246.2,106,246.6,106,247.1,106z M236,54.1
			c-0.5-0.1-0.6,0.3-0.6,0.6c-0.8-0.1-0.5-1.1-0.6-1.9C235.8,52.5,235.9,53.3,236,54.1z M228.2,79.4c2.4-0.6,0.9,3.7-0.6,3.3
			C227,80.8,228.5,81,228.2,79.4z M224.3,74.9c0.4,0,0.9,0,1.3,0c0,0.4,0,0.9,0,1.3c-0.4,0-0.9,0-1.3,0
			C224.3,75.7,224.3,75.3,224.3,74.9z M224.3,82.7C226.3,80.3,226.5,84.6,224.3,82.7L224.3,82.7z M217.8,57.4
			c1.5,0.2,1.5,1.8,0.6,2.6C217,59.8,217,58.2,217.8,57.4z M215.2,98.3c0.3,1.3-0.4,1.8-0.6,2.6c-2,0.3-2.1-1.4-1.9-3.3
			C214,97.3,214.4,98,215.2,98.3z M211.4,91.2c1.9-1,1.9,2.9,0,1.9C211.4,92.4,211.4,91.8,211.4,91.2z M195.1,34.7
			C194.3,36.6,191.6,34,195.1,34.7L195.1,34.7z M193.1,72.3c1.9-1,1.9,2.9,0,1.9C193.1,73.6,193.1,72.9,193.1,72.3z M187.9,82.1
			c0.6,0,1.3,0,1.9,0c0.2,1.1-0.6,1.1-0.6,1.9c-0.4,0-0.9,0-1.3,0C187.9,83.3,187.9,82.7,187.9,82.1z M179.5,63.8
			C181.1,61.4,180.4,66,179.5,63.8L179.5,63.8z M180.6,108.9c-0.6,0.4-1.9,1.5-2.5,0.8C178.7,108.1,179.4,108.6,180.6,108.9z
			 M176.9,89.2c0.4,0,0.9,0,1.3,0c0,0.4,0,0.9,0,1.3c-0.4,0-0.9,0-1.3,0C176.9,90,176.9,89.7,176.9,89.2z M169.8,65.2
			c1.3,0.8,4.3,1.4,2.6,3.3C172,66.8,169.1,67.8,169.8,65.2z M169.1,93.1c1.7,0.1,1.5,2.4,0.6,3.3C167.1,96.7,167.6,93.5,169.1,93.1
			z M164.6,65.2c0.4,0,0.9,0,1.3,0c0,0.4,0,0.9,0,1.3c-0.4,0-0.9,0-1.3,0C164.6,66,164.6,65.6,164.6,65.2z M160,113.2
			c-0.3,1-0.5-0.1-1.3,0C158.9,112.4,160,112.6,160,113.2z M130.8,109.3c0,0.4,0,0.9,0,1.3C127.6,111.2,129.6,107.2,130.8,109.3z
			 M112.6,67.7c0.3,1.6-1.1,1.4-0.6,3.3C108.9,71.3,110.4,67.5,112.6,67.7z M107.5,74.9c0.4,0,0.9,0,1.3,0c0,0.4,0,0.9,0,1.3
			c-0.4,0-0.9,0-1.3,0C107.5,75.7,107.5,75.3,107.5,74.9z M103,192.1c2,0.4,0.4,5.1,1.9,7.7c1-1.2-1.5-4.8,0.8-3.4
			c-1.5-1-1.3-2.1-1.1-3.3c0.4-1.2,0.8-2.6-0.2-4.3l1.2,0.4c-0.2-0.5-0.6-1.6-0.5-2.5l1.5,1.8c-1.1-2.6,1.7-4.5,1.5-6.9
			c-0.5,2.4-1,2.6-1.4,2.5c-0.5-0.2-1.1-0.7-1.7,0.3c-0.4-6.4,4-2.8,4.8-9.5c-0.1,0.9-1.5,3.2-1.8,1.6c0.4-1.2,1.5-2.7,2.4-3.3
			c1.1-4.3-1.5,0.3-1.7-1.8c1.9-1,0.1-2.3,0.3-4.4l1.2,0.4c1.1-2.3,0.9-2.8,0.3-3.3c-0.5-0.5-1-1,0.4-2.9l0.9,2.6l0.5-2.4l1.1,1.1
			c0.1-2.8,0.5-3.6,2.2-5.6c-1.1,0.1-1.9-1.4-0.8-3.4c1.5-1,0.6,1.4,2.1-1.6c0.4,1.1,0.8,2.3-0.9,2.9c0.3,0.4,0.4,1.1,0.6,1.3
			c0.5-0.4,0.9-0.8,1.2-1.3c-0.2-0.1-0.4-0.4-0.9-0.4c0.2-0.7,1.1-0.6,1.2-0.2c0.5-1.1,1-2.1,1.2-2.7c-0.3,0.4-0.6,0.8-0.9,1
			c0,0,0.2-1.2,0.4-2.5c0.3-1.2,0.6-2.5,0.6-2.5c0.9-0.4,0.8,0.4,0.8,1.1c0.4-0.9,0.4-1.8,1.1-2.9c0.6,0.9,1.6,1.5,0.9,3.3l1.6-4.3
			c0.5,0,2.3-1.1,2.3-0.4c2.1-1.4,2.3-5.9,5.1-7.7c0-0.3,0.1-0.6,0.4-1.2c1.2-1,2.5-1.7,3.7-2.6c0.6-0.4,1.1-1,1.8-1.6
			c0.6-0.5,1.1-1.2,1.6-2l2.8,0.3c1.9-2.1-3.7-0.2-0.4-3.7c2.3-2.6,1.9,0.5,3.2,0.3c0.8-1.7,2.3-4.9,5.6-5.3
			c-0.7,0.9-1.5,1.1-2.2,1.7l2.6-0.4c-1.5,3-3.4,3.5-0.8,3.6c-0.8-1.6,1-3,2.9-4.1c1.9-1.1,3.9-2.2,3.3-4h1.7
			c-0.4,0.2-0.4,0.4-0.8,0.5c3.3,0.2,0.9-3.4,4.8-4.4c1.4-0.3,2.5-0.1,1.8,0.6l2.6-2c0.9-0.3,0.9,0.4,0,0.7c0,0,0.3-0.1,0.6-0.3
			c0.4-0.2,1-0.4,1.5-0.5c1.1-0.4,2.2-0.8,2.2-0.8v0.1c0.4-0.7,1.7-2,2.3-2.6c1.3,0.2-0.4,0.5-0.1,0.9l2.3-1.6
			c0.6,0.4,0.4,0.9-0.1,1.3c-0.5,0.5-1.4,1-2.3,1.1c1.6,1.4,2,1.1,2.8,0.4c0.8-0.5,1.9-1.4,4.6-0.8l-2.3,0.9
			c1.9,1.8,3.6,0.7,6.3,1.5c-0.6-0.5-5.8-2.2-3.3-3.6c0.8,0.2,1.9,0,3.3-0.9c0.2,1.3,1.6,0.9,3.4,0.6v1.8c1.9-0.7,1.7-1.5,2.7-2.4
			c2.2,0,2.7,1.2,3.3,2.5c3.4,0.4-2.5-2.2,1.7-2.5c1.5,0.4,2.7,0.4,4.1,0.2s2.7-0.7,4.6-1c2,0.8-0.4,1,0.3,1.6l1.9-1.1
			c0.4,0.1,0.3,0.5,0.2,0.7c1.6-0.4,0.4-1.7,2.8-1.9c0.4-0.9,1.7-0.1,3.1,0.8c1.4,1,3.1,2,4.8,1.3c0.6,0.6-0.6,1-0.5,1.7
			c4.4-0.5,3.7-0.4,7.5-1.1l2.5,2c-1.7-1.9,1.5-2.5,4.3-2.9c-0.1-0.2-0.2-0.3-0.3-0.4c0.3,0.1,0.6,0.2,0.9,0.4c-0.2,0-0.4,0-0.6,0.1
			c0.1,0.2,0.2,0.4,0.3,0.4c0.3-0.1,0.5-0.3,0.8-0.4c0.6,0.3,1.2,0.5,1.9,0.8c-0.2,0.5-0.9,0.9-1.7,1.1l-0.9-1.6
			c-1.3,0.7-2.6,1.5-2.7,2.5c0.3-0.1,0.8-0.1,1.4,0c-0.4,0.2-0.6,0.4-0.5,0.6s0.6-0.1,1.3-0.2l0.1,2.1l0.4-0.6l4.1,3.2
			c1.1-0.1,2-0.3,3.1-0.4c1.1-0.1,2.1-0.1,3.2-0.1c2.2,0.1,4.8,0.4,7.5,1.6c-1.9,0.4-1.5,1.8-2.5,3.1c-0.4-2.4-4.2-1.6-6.6-3.3
			c1.2,1,0.5,1.5,0.1,1.5l5.4,1.2c-0.8,1.1,0.4,1.4,1.2,2.7c0.6-2.9,4.2,0.8,6.5,1.3c-0.4,0.8-1.4,1.2-3.4-0.4
			c1.1,3.3,5-0.4,6.2,2.8c-0.5-0.4-0.7-0.7-1.1-0.5c1.7,0.4,4.1,3.3,2.8,3.3l-0.5-0.4c0.8,0.8,1.8,1.7,2.8,2.6c1.1,1,2,1.9,3.1,2.8
			c0,0,0,0,0-0.1c0.4,0,0.9,0,1.3,0c0,0.4,0,0.7,0,1.1c1.7,1.2,3.3,2,4.1,1.7c-0.2,0.3-2.5,1.3-3,1.5c0,0,0.7,0,1.7,0.1
			s2.4,0.3,3.7,0.4c0.8,0.1,1.5,0.2,2.2,0.3c0.5,0.6,1,1.2,1.4,1.9c-1.5,1.5-3.3,3.4-5.4,1.9c0.4,1,1,2,2.6,3.4
			c-0.1-0.7,1.4-3.1,2-2.4c-0.4,3.4,0,2.2,0.2,5.9c-0.2-1.1,3-1.8,3.9-0.4c-0.5,0-2.6,1.7-3.2,1.4c0,0,1.2,0.4,2.4,1
			c1.1,0.5,2.3,1.1,2.3,1.1c-1-0.6-2.3,1.1-2.6,2.3c0.4-0.6,1.5,3.1,2.3,4l-0.2-1.9c1.8,4.2,5.8,2.3,7.5,6.8
			c-0.8-0.4-4.1,0.2-3.6,2.4c0.9,0.3,3.2,0.6,5.4,1.6c0.2,0.1,0.4,0.2,0.5,0.3c0.5,1.7,1.1,3.4,1.6,5.2c-0.4-0.3-0.7-0.4-1.1-0.7
			c-2.3-1.5-4.5-3-5.8-4.1c-0.2,1.9-0.9,0.8-0.1,3.2c-0.5,1.1-1.6-1-1.9-1.6l1.1,5.7c0.9-0.4,1.6,0.6,2.3,1.6c0.6,1,1.2,2,1.9,1.8
			c0,0-0.2-0.4-0.4-1c-0.3-0.5-0.7-1.3-1.1-2c-0.9-1.4-1.8-2.8-1.8-2.8c0.8-0.4,2.3,0.2,3.8,1.3c1.5,1.1,2.6,3.1,2.8,5.3
			c-0.5,1.2-3.3-0.2-3.9,0.1c0.7,0.4,1.9,3.7,1.6,4.1l-1.3-1.6c-0.1,1.2,0.6,2,1.3,3c0.6,1,1,2,0.3,3.5c0,1-2.1,3.1-1,3.2
			c1.1-1.1,4-1.8,6.3-1.9c0.1,1.1,0.2,2.4,0.2,3.5l-0.8-0.1l0.1,0.7l0.7-0.1c0.1,1.1,0.1,2.4,0.1,3.5c-1.6,0.5-3.4-2.6-4.7-1.3
			c0.5,0.1,1.1,1,1.3,1.3c-0.4,1.1-1.5-0.4-1.3,1.9c1.9,0.4-0.3,4.6,1.6,1.1c0.4,2.2-0.3,2.4-0.5,4.9c0.9-0.5,2.3,1,3.2,2.6
			c-0.1,0.9-0.2,1.8-0.4,2.7c-0.1,0.1-0.2,0.2-0.3,0.2c-0.2,1.1-0.4,2.2-0.6,3.1c-0.3,1-0.6,1.8-0.9,2.6c0.9,0.2,1.5,0.7,1.3,1.9
			c-0.6,0.6-1.4,0.6-2,0.3c-0.1,0.4-0.2,0.6-0.3,1c0.2,0,0.3,0,0.4,0c0.3,1.3-0.4,1.8-0.6,2.6c-0.3,0-0.4-0.1-0.6-0.2
			c-0.5,0.5-1.3,1.8-1.8,0.9c0.2,0.7,0.5,1.4,0.2,2.6c-2.3,1.9,0.7-2.8-1.8-1.6c1,0.4,0.4,3.6,0.4,5.6c1.8,0,1.7-4.1,1.6-6
			c0.8,0.2,1.4,0.8,1.9,1.8c-0.1,0.2-0.2,0.4-0.2,0.6c0.1,0,0.2,0.1,0.3,0.1c-0.1,0.5-0.3,0.7-0.5,0.7c-1.2,4-2.6,7.8-4.3,11.5
			c-1.9,2.4-5.1,10.1-8.8,13.4c-0.1,0.8-0.4,1.9-0.2,2.3c-1.5,2.1-3.2,4.2-4.8,6.2c1.1-0.2,2.4,0.2,3,1.1c-0.4,1.9-1.4,3.3-3.9,3.3
			c0-0.6-0.8-0.5-1.3-0.6c-0.1-0.4-0.1-0.7-0.1-1.1c-0.4,0.5-0.9,1.1-1.4,1.6H267l0,0c-0.8,0.8-1.6,1.6-2.4,2.4
			c-0.4,0.8-0.7,1.6-0.7,2.2c-0.6,0-1.1-0.2-1.6-0.4l-0.4,0.7l0,0c-0.3-0.2,0.1-1.1-0.6-0.9c0.2,0.4,0.2,0.9,0,1.5
			c-0.9,0.8-1.9,1.6-2.7,2.4c-0.1,0-0.2,0.1-0.3,0.1c-0.1,0.1,0,0.2-0.1,0.3c-0.7,0.6-1.5,1.2-2.2,1.9c-0.1,0-0.4,0.1-0.6,0.2
			c-0.2,0.4-0.5,0.4-0.7,0.8l0,0c-2,1.5-4.1,2.9-6.2,4.3c0.5,0.4,1.1,0.6,1.9,0.3c0.4,4.4-3,2-3.9,2.6c-1-0.6-0.2-1.1,0.2-1.8
			c-5.9,3.6-12.2,6.6-18.8,8.8c-0.4,1-1.1,1.7-1.5,2.6c-1,0-1.3-0.7-1.5-1.6c-14,4.4-29.3,5.6-44.8,3c-1.5-0.3-2.9-0.5-4.3-0.9
			c0,0.3,0,0.5,0,0.7c-0.6,0-1.3,0-1.9,0c0-0.4,0-0.9,0-1.3c0.3,0,0.5,0,0.7,0c-0.7-1.2-1.4-2.5-1-3.5c-0.8,0.4-1.5,0.4-2.3,0
			c-0.8-0.4-1.5-1.1-2.3-1.7c-1.6-1.3-3.3-2.5-5.9-1.6c-0.7-0.8,1.1-0.5,0.8-1.2c-1.4,0.8-2.6,0.4-4.7-1.1l0.4-0.2
			c-2.3-1-4.1-1.8-5.6-2.7c-0.2,0.5-0.3,1.2-0.4,2.2c-1.3,0.3-1.7-0.4-2.6-0.6c0.3-1.1,0.6-2,1-3c-0.7-0.5-1.5-1.1-2.3-1.8
			c0,0.3,0,0.6,0,0.9c-0.4,0-0.9,0-1.3,0c0-0.4,0-0.9,0-1.3c0.3,0,0.5,0,0.8,0c-1.1-0.8-2.2-1.7-3.4-2.8c-0.1,0.1-0.1,0.2-0.2,0.2
			l-0.2,1.1c-0.2-0.2-0.4-0.4-0.5-0.5c-0.1,0.1-0.2,0.2-0.2,0.3c0.7,0.6,1.1,1.1,0.1,1.5c0-0.4-0.2-0.7-0.4-1.1
			c-0.6-0.3-0.7-0.4-0.4-0.7c-0.9-1.1-2.4-2.1-3.8-3.2c-2.2-1.7-4-3.6-3.6-5.1c-1.9-1.6-0.4,1.6-2.3,0V267c0,0,0,0.1-0.1,0.1
			c-0.5-0.1-0.9-0.4-1.1-0.7l0,0l0,0c0-0.1-0.1-0.1-0.1-0.2c-1-1.1-0.8-2.5-0.4-2.9c0.2,0.4,0.9,0.6,1.2,0.9c-0.7-2.1-4.2-4-4.5-4.7
			l1.2,2c-1.2-1.1-2.6-2.2-3.8-3.6c-1.1-1.4-2.3-2.8-3.3-4.2l-1.8-2.1c-0.5-0.7-1.1-1.5-1.6-2.2c-1.1-1.4-2.2-2.7-3.4-3.9l-0.3,0.7
			c-3.5-3.7-1.3-3.8-4.3-8.4l0.3,0.1c-1.1-0.7-1.9-1.9-2.4-3.3c1.1,1,0.4-2.9,1.7-1.6c-3.1-4.5-1.9-2-5.2-4.7l0.7-1.1
			c-1.2-0.9-1.7-0.9-2.7-3.4c1.5,1.9,1-2.1,2.8,0c0.1-1.5-0.1-2.7-0.4-3.8c-0.3-1.1-0.7-1.9-1.1-2.7c-0.7-1.6-1.3-2.9,0.1-4.4
			c-3.3-2.1-0.6,5.1-1.5,3.8c-0.6,1.4-2.5-1.8-2.5-3.6c-0.4-1.9,3-3.6,2.6-7.9c-0.4-0.1-0.5-0.4-0.3-1.1c0-0.1,0.2-0.2,0.4-0.4
			c-0.4-1-0.7-2,0.1-3.2c-1.7-1.1,0.2-2.7-2-3.1l0.4,4.2c-0.5-2.4-3-4.7-1.8-8.7c0.4,0.4,1,1.6,1.3,2.4
			C103.2,194.4,102.1,193.2,103,192.1z M234.6,112.7c-0.6,0.2-1.3-0.4-1.9-1.1C233.3,111.7,234,112,234.6,112.7z M100.9,158
			c0.5,0.1,0.6,0.6,1.3,0.6C101.9,160.2,99.2,159.1,100.9,158z M100.9,92.4c-0.3,1-0.5-0.1-1.3,0C99.8,91.6,100.9,91.8,100.9,92.4z
			 M98.3,178.1c0.4,0,0.9,0,1.3,0c-0.1,0.5,0.3,0.6,0.6,0.6c0,0.4,0,0.9,0,1.3c-0.5-0.1-0.6,0.3-0.6,0.6c-0.4,0-0.9,0-1.3,0
			c0.1-0.5-0.3-0.6-0.6-0.6c0-0.4,0-0.9,0-1.3C98.2,178.9,98.3,178.6,98.3,178.1z M96.3,146.9c0.4,0,0.9,0,1.3,0c0,0.4,0,0.9,0,1.3
			c-0.4,0-0.9,0-1.3,0C96.3,147.8,96.3,147.4,96.3,146.9z M54.1,315.2c-0.4,0-0.9,0-1.3,0c0-0.4,0-0.9,0-1.3c0.4,0,0.9,0,1.3,0
			C54.1,314.3,54.1,314.7,54.1,315.2z M52.9,293.8c-0.1-1.6-0.1-3.1,0.6-3.9c1.6-0.3,1.4,1.1,3.3,0.6
			C56.9,293.4,55.1,294.8,52.9,293.8z M54.1,245.6c0-0.4,0-0.9,0-1.3c1.4-0.3,1.2,1,1.3,1.9C54.9,246.2,54.8,245.6,54.1,245.6z
			 M59.3,318.4C57.8,320.5,56.8,316.2,59.3,318.4L59.3,318.4z M62.6,319.7c0.8,0.3,1.3,0.8,1.3,1.9
			C61.6,322.2,61.7,320.6,62.6,319.7z M64.5,302.1C65.5,300,66.2,304.7,64.5,302.1L64.5,302.1z M65.2,295.7c0.1-0.5,0.6-0.6,0.6-1.3
			c0.8,0.3,1.3,0.8,1.3,1.9C66.1,296.5,66,295.7,65.2,295.7z M70.4,272.3C68.4,274.7,68.2,270.3,70.4,272.3L70.4,272.3z M70.4,283.4
			C73.3,283.8,69.9,287.2,70.4,283.4L70.4,283.4z M73,308c-0.4,0-0.9,0-1.3,0c0-0.4,0-0.9,0-1.3c0.4,0,0.9,0,1.3,0
			C73,307.2,73,307.6,73,308z M74.3,221.7c0.2,1.7-0.3,2.8-1.9,2.6c0-0.9,0-1.8,0-2.6C73,221.7,73.6,221.7,74.3,221.7z M74.9,239.8
			c0-0.6,0-1.3,0-1.9C76.9,236.9,76.9,240.8,74.9,239.8z M75.6,269.7c0,0.4,0,0.9,0,1.3c-0.4,0-0.9,0-1.3,0c0-0.4,0-0.9,0-1.3
			C74.8,269.7,75.2,269.7,75.6,269.7z M74.3,219C77.1,219.3,73.6,222.8,74.3,219L74.3,219z M73,285.9c0-0.6,0-1.3,0-1.9
			c1.4-0.1,2,0.5,1.9,1.9C74.3,285.9,73.6,285.9,73,285.9z M73.6,289.8C75.3,287.3,74.6,292,73.6,289.8L73.6,289.8z M73,297.6
			c3.2,0.4,4.4,2.6,4.6,5.8c-2.5,0.4-4.1-0.2-5.2-1.3C71.8,299.9,73.3,299.7,73,297.6z M74.3,308.7c0.1-0.5,0.6-0.6,0.6-1.3
			c0.8,0.3,1.3,0.8,1.3,1.9C75.2,309.5,75.1,308.7,74.3,308.7z M76.9,304.8c1.4-0.1,2,0.5,1.9,1.9c-0.6,0-1.3,0-1.9,0
			C76.9,306.1,76.9,305.4,76.9,304.8z M78.8,315.8c-1.5-0.2-1.5-1.8-0.6-2.6C79.7,313.4,79.7,314.9,78.8,315.8z M74.3,280.7
			c-0.5-1.9,0.9-1.7,0.6-3.3c5.6-0.5,0.4,5.8,5.8,5.2C78.5,284.8,76.1,281.4,74.3,280.7z M78.8,271.6c-2.3,0.5-2.2-1-1.3-1.9
			C78.4,270,78.9,270.5,78.8,271.6z M78.2,265.1c2.3-0.4,2.3,2.3,1.3,3.3C77.2,268.8,77.1,266.1,78.2,265.1z M84,308
			c-0.8-0.1-1.1,0.2-1.3,0.6c-2.3-0.5-2.3-3.3-0.6-4.6C83.8,304.3,84.4,305.7,84,308z M82.1,287.9c0-0.6,0-1.3,0-1.9
			c1.1-0.2,1.1,0.6,1.9,0.6c-0.1,0.5-0.6,0.6-0.6,1.3C82.9,287.9,82.5,287.9,82.1,287.9z M87.3,304.8c0.5-2.3-1-2.5-0.6-4.6
			c0.6,0,1.3,0,1.9,0C88.5,301.4,90.4,304.7,87.3,304.8z M86.7,296.3c0-0.6,0-1.3,0-1.9c0.6,0,1.3,0,1.9,0c0,0.6,0,1.3,0,1.9
			C88,296.3,87.3,296.3,86.7,296.3z M87.3,310.6c0.1-1.1-0.8-1.4-0.6-2.6c0.6-0.5,1.5-0.7,2.6-0.6C89.4,309.2,89.3,311,87.3,310.6z
			 M89.2,265.1C91.7,267.2,87.3,267.3,89.2,265.1L89.2,265.1z M88.6,245.6c1.7-0.2,1.7,1.3,1.9,2.6
			C88.3,249.8,87.2,247.4,88.6,245.6z M89.9,270.3c0.4,0,0.9,0,1.3,0c0,0.4,0,0.9,0,1.3c-0.4,0-0.9,0-1.3,0
			C89.9,271.2,89.9,270.8,89.9,270.3z M90.5,305.4C92.1,302.9,91.5,307.6,90.5,305.4L90.5,305.4z M92.5,295.7
			c-0.1,1.8,1.1,1.3,0,2.6C90,298.8,90,295.2,92.5,295.7z M93.2,300.9c-0.4,0-0.9,0-1.3,0c0-0.6,0-1.3,0-1.9c0.6,0,1.3,0,1.9,0
			C94,299.9,93.2,300,93.2,300.9z M93.8,247c-0.9,0-1.8,0-2.6,0C87.8,241.2,97.1,241.9,93.8,247z M90.5,137.9
			c0.5,0.1,0.6,0.6,1.3,0.6c-0.1,0.5-0.6,0.6-0.6,1.3c-0.5-0.1-0.6-0.6-1.3-0.6C90,138.7,90.5,138.6,90.5,137.9z M88,233.3
			c0-0.9,0-1.8,0-2.6C90.1,230.6,90.5,233.7,88,233.3z M88,206.1C89.9,203.7,90.1,208,88,206.1L88,206.1z M88,132.7
			c0.4,0,0.9,0,1.3,0c0,0.4,0,0.9,0,1.3c-0.4,0-0.9,0-1.3,0C88,133.5,88,133.1,88,132.7z M87.3,134.6c1.4-0.1,2,0.5,1.9,1.9
			c-0.6,0-1.3,0-1.9,0C87.3,135.9,87.3,135.3,87.3,134.6z M85.9,176.2C87.6,173.6,86.9,178.3,85.9,176.2L85.9,176.2z M86.7,279.5
			c1.9-0.5,1.7,0.9,3.3,0.6c0,1.1,0,2.2,0,3.3c-1.9-0.2-2,1.5-3.9,1.3C85.5,282.2,87.1,281.9,86.7,279.5z M87.3,299
			c-0.9,0.8-2.4,0.8-3.3,0c0.4-0.5,0.7-1.1,0.6-1.9C86.4,296.8,87.4,297.2,87.3,299z M84.7,250.2c-0.4,0-0.9,0-1.3,0
			c0-0.4,0-0.9,0-1.3c0.4,0,0.9,0,1.3,0C84.7,249.3,84.7,249.8,84.7,250.2z M83.4,231.4c1.3,0.4,1.4,1,0.6,1.9c-0.4,0-0.9,0-1.3,0
			C82.6,232.3,83.4,232.3,83.4,231.4z M82.8,236C84.4,233.4,83.7,238.1,82.8,236L82.8,236z M82.8,272.3c-2,0.3-2.1-1.4-1.9-3.3
			C83.2,268.5,83.8,271.2,82.8,272.3z M80.1,210.6c2.6,0.4,0,3.1-1.3,1.3C79,211.2,80.1,211.5,80.1,210.6z M78.8,187.2
			c-1.7,0.2-2.1-0.9-1.9-2.6C79.2,184.1,79.8,186.3,78.8,187.2z M76.1,98.8c0.2-0.4,0.4-0.8,1.1-0.9c1.2,0.9-0.4,1.6-1.5,2.4
			C75.7,99.9,75.9,99.3,76.1,98.8z M74.9,182.7c0.4,0,0.9,0,1.3,0c0,0.4,0,0.9,0,1.3c-0.4,0-0.9,0-1.3,0
			C74.9,183.5,74.9,183.2,74.9,182.7z M74.3,122.3c-0.3,1-0.5-0.1-1.3,0C73.2,121.5,74.3,121.6,74.3,122.3z M71.7,180.8
			c1.9-1,1.9,2.9,0,1.9C71.7,182,71.7,181.4,71.7,180.8z M71.7,219.7c-0.6,0-1.3,0-1.9,0c0-0.4,0-0.9,0-1.3c0.6,0,1.3,0,1.9,0
			C71.7,218.9,71.7,219.3,71.7,219.7z M71.1,200.3c-1.1,0.2-1.1-0.6-1.9-0.6c0.1-0.5,0.6-0.6,0.6-1.3
			C70.5,198.6,71.1,199.1,71.1,200.3z M70.4,172.9C68.4,175.3,68.2,171,70.4,172.9L70.4,172.9z M69.1,238.5c0.4,2.3-0.5,3.3-1.9,3.9
			C62,242,65.9,234.4,69.1,238.5z M66.5,165.2c-1.4,0.1-2-0.5-1.9-1.9C65.9,163.1,66.6,163.8,66.5,165.2z M62.6,182
			c1.4-0.1,2,0.5,1.9,1.9c-0.6,0-1.3,0-1.9,0C62.6,183.3,62.6,182.7,62.6,182z M60,189.2c1.9-1,1.9,2.9,0,1.9
			C60,190.5,60,189.9,60,189.2z M62.6,299.6c-1.3,1.3-1.2-0.3-2.6-0.6C60.1,297,63.1,297.4,62.6,299.6z M58.7,309.3
			c1.3,0.3,2-0.1,1.9-1.3c4.1,1.8,3.4,5.8,0.6,8.5C59.2,314.7,57.7,312.4,58.7,309.3z M58.1,296.9c-2,0.3-2.9-0.5-2.6-2.6
			C57.5,294.1,58.4,294.9,58.1,296.9z M54.8,202.2c0.5,0.4,1.8,1,1.9,0c1,0.2-0.6,3.3-2.6,2.6C53.9,203.4,54.6,203.1,54.8,202.2z
			 M54.1,218.4c0,0.4,0,0.9,0,1.3c-0.4,0-0.9,0-1.3,0c0-0.4,0-0.9,0-1.3C53.3,218.4,53.8,218.4,54.1,218.4z M50.3,158.7
			c1.4-0.3,1.2,1,1.3,1.9c-0.5-0.1-0.6-0.6-1.3-0.6C50.3,159.5,50.3,159.1,50.3,158.7z M49.6,168.4c0.6,0,1.3,0,1.9,0
			c0,0.4,0,0.9,0,1.3c-0.6,0-1.3,0-1.9,0C49.6,169.2,49.6,168.8,49.6,168.4z M52.2,185.3c0.9,0.8,0.9,3.1,0,3.9
			c-1.9-0.1-2.7-1.1-2.6-3.3C50.2,185.5,51.1,185.3,52.2,185.3z M50.3,237.9c1.1,0.2,1.5,1.1,1.3,2.6c-0.9,0-1.8,0-2.6,0
			C48.5,238.7,50.3,239.2,50.3,237.9z M40.6,180.8c-0.5,1.9-1,0.7-2.6,0.6C38.1,179.9,39.7,179.9,40.6,180.8z M28.2,195.7
			c-0.4,0-0.9,0-1.3,0c0-0.4,0-0.9,0-1.3c0.4,0,0.9,0,1.3,0C28.2,194.8,28.2,195.2,28.2,195.7z M28.2,160c1.9,0.1,1.2,2.7-0.6,2.6
			C27.4,161.4,28.3,161.2,28.2,160z M26.3,161.3C28.7,163.2,24.3,163.4,26.3,161.3L26.3,161.3z M19.8,162.5c-0.4,0-0.9,0-1.3,0
			c0.1-0.5-0.3-0.6-0.6-0.6C17.6,160.7,20.7,161,19.8,162.5z M8.8,193.5c-0.3,2.1-0.7,4.4-1.5,7.4C7.1,199.5,7.8,196.5,8.8,193.5z"
			/>
	</g>
</g>
</svg>
